<svg width="110" height="110" viewBox="0 0 110 110" fill="none" xmlns="http://www.w3.org/2000/svg">
<rect width="110" height="110" fill="#E8F4FF"/>
<path d="M32.0935 44.4141L78.0284 44.4141L82.6218 68.0377H27.5L32.0935 44.4141Z" fill="url(#paint0_linear_96_52)"/>
<g filter="url(#filter0_b_96_52)">
<circle cx="55.3994" cy="39.6636" r="14.9136" fill="#B9DDFF" fill-opacity="0.6"/>
<circle cx="55.3994" cy="39.6636" r="14.6076" stroke="url(#paint1_linear_96_52)" stroke-width="0.611895"/>
</g>
<g filter="url(#filter1_b_96_52)">
<path d="M30.5917 86.0752L79.6059 86.0752L79.6059 57.4835C57.1411 57.4835 53.0565 57.4835 30.5917 57.4835L30.5917 86.0752Z" fill="#B9DDFF" fill-opacity="0.6"/>
<path d="M30.8976 85.7692L79.3 85.7693L79.3 57.7895L79.2129 57.7895L79.0828 57.7895L78.953 57.7895L78.8237 57.7895L78.6947 57.7895L78.5662 57.7895L78.4381 57.7895L78.3104 57.7895L78.1831 57.7895L78.0562 57.7895L77.9297 57.7895L77.8036 57.7895L77.6779 57.7895L77.5526 57.7895L77.4277 57.7895L77.3032 57.7895L77.179 57.7895L77.0553 57.7895L76.9319 57.7895L76.809 57.7895L76.6864 57.7895L76.5642 57.7895L76.4424 57.7895L76.3209 57.7895L76.1999 57.7895L76.0792 57.7895L75.9589 57.7895L75.839 57.7895L75.7194 57.7895L75.6002 57.7895L75.4814 57.7895L75.3629 57.7895L75.2448 57.7895L75.1271 57.7895L75.0097 57.7895L74.8927 57.7895L74.7761 57.7895L74.6598 57.7895L74.5438 57.7895L74.4282 57.7895L74.313 57.7895L74.1981 57.7895L74.0836 57.7895L73.9694 57.7895L73.8555 57.7895L73.742 57.7895L73.6289 57.7895L73.5161 57.7895L73.4036 57.7895L73.2914 57.7895L73.1796 57.7895L73.0682 57.7895L72.957 57.7895L72.8462 57.7895L72.7357 57.7895L72.6256 57.7895L72.5157 57.7895L72.4062 57.7895L72.297 57.7895L72.1882 57.7895L72.0796 57.7895L71.9714 57.7895L71.8635 57.7895L71.7559 57.7895L71.6486 57.7895L71.5416 57.7895L71.4349 57.7895L71.3286 57.7895L71.2225 57.7895L71.1168 57.7895L71.0113 57.7895L70.9062 57.7895L70.8013 57.7895L70.6968 57.7895L70.5925 57.7895L70.4886 57.7895L70.3849 57.7895L70.2815 57.7895L70.1784 57.7895L70.0756 57.7895L69.9731 57.7895L69.8709 57.7895L69.7689 57.7895L69.6673 57.7895L69.5659 57.7895L69.4648 57.7895L69.3639 57.7895L69.2634 57.7895L69.1631 57.7895L69.0631 57.7895L68.9633 57.7895L68.8638 57.7895L68.7646 57.7895L68.6657 57.7895L68.567 57.7895L68.4686 57.7895L68.3704 57.7895L68.2725 57.7895L68.1749 57.7895L68.0775 57.7895L67.9803 57.7895L67.8834 57.7895L67.7868 57.7895L67.6904 57.7895L67.5943 57.7895L67.4984 57.7895L67.4027 57.7895L67.3073 57.7895L67.2121 57.7895L67.1172 57.7895L67.0225 57.7895L66.928 57.7895L66.8338 57.7895L66.7398 57.7895L66.646 57.7895L66.5524 57.7895L66.4591 57.7895L66.366 57.7895L66.2732 57.7895L66.1805 57.7895L66.0881 57.7895L65.9959 57.7895L65.9039 57.7895L65.8121 57.7895L65.7206 57.7895L65.6292 57.7895L65.5381 57.7895L65.4472 57.7895L65.3564 57.7895L65.2659 57.7895L65.1756 57.7895L65.0855 57.7895L64.9956 57.7895L64.9059 57.7895L64.8163 57.7895L64.727 57.7895L64.6379 57.7895L64.549 57.7895L64.4602 57.7895L64.3717 57.7895L64.2833 57.7895L64.1951 57.7895L64.1071 57.7895L64.0193 57.7895L63.9317 57.7895L63.8442 57.7895L63.7569 57.7895L63.6698 57.7895L63.5829 57.7895L63.4962 57.7895L63.4096 57.7895L63.3232 57.7895L63.2369 57.7895L63.1508 57.7895L63.0649 57.7895L62.9792 57.7895L62.8936 57.7895L62.8081 57.7895L62.7229 57.7895L62.6378 57.7895L62.5528 57.7895L62.468 57.7895L62.3833 57.7895L62.2988 57.7895L62.2144 57.7895L62.1302 57.7895L62.0462 57.7895L61.9622 57.7895L61.8784 57.7895L61.7948 57.7895L61.7113 57.7895L61.6279 57.7895L61.5447 57.7895L61.4616 57.7895L61.3786 57.7895L61.2957 57.7895L61.213 57.7895L61.1304 57.7895L61.048 57.7895L60.9656 57.7895L60.8834 57.7895L60.8013 57.7895L60.7193 57.7895L60.6375 57.7895L60.5557 57.7895L60.4741 57.7895L60.3925 57.7895L60.3111 57.7895L60.2298 57.7895L60.1486 57.7895L60.0675 57.7895L59.9865 57.7895L59.9056 57.7895L59.8249 57.7895L59.7442 57.7895L59.6636 57.7895L59.5831 57.7895L59.5027 57.7895L59.4224 57.7895L59.3421 57.7895L59.262 57.7895L59.182 57.7895L59.102 57.7895L59.0221 57.7895L58.9423 57.7895L58.8626 57.7895L58.783 57.7895L58.7034 57.7895L58.6239 57.7895L58.5445 57.7895L58.4652 57.7895L58.3859 57.7895L58.3067 57.7895L58.2276 57.7895L58.1485 57.7895L58.0695 57.7895L57.9906 57.7895L57.9117 57.7895L57.8329 57.7895L57.7541 57.7895L57.6754 57.7895L57.5968 57.7895L57.5182 57.7895L57.4396 57.7895L57.3612 57.7895L57.2827 57.7895L57.2043 57.7895L57.1259 57.7895L57.0476 57.7895L56.9694 57.7895L56.8911 57.7895L56.8129 57.7895L56.7348 57.7895L56.6566 57.7895L56.5785 57.7895L56.5005 57.7895L56.4224 57.7895L56.3444 57.7895L56.2665 57.7895L56.1885 57.7895L56.1106 57.7895L56.0327 57.7895L55.9548 57.7895L55.8769 57.7895L55.799 57.7895L55.7212 57.7895L55.6434 57.7895L55.5656 57.7895L55.4878 57.7895L55.41 57.7895L55.3322 57.7895L55.2544 57.7895L55.1766 57.7895L55.0988 57.7895L55.021 57.7895L54.9432 57.7895L54.8655 57.7895L54.7877 57.7895L54.7099 57.7895L54.6321 57.7895L54.5542 57.7895L54.4764 57.7895L54.3986 57.7895L54.3207 57.7895L54.2429 57.7895L54.165 57.7895L54.0871 57.7895L54.0091 57.7895L53.9312 57.7895L53.8532 57.7895L53.7752 57.7895L53.6971 57.7895L53.6191 57.7895L53.541 57.7895L53.4629 57.7895L53.3847 57.7895L53.3065 57.7895L53.2283 57.7895L53.15 57.7895L53.0717 57.7895L52.9933 57.7895L52.9149 57.7895L52.8365 57.7895L52.758 57.7895L52.6794 57.7895L52.6008 57.7895L52.5222 57.7895L52.4435 57.7895L52.3647 57.7895L52.2859 57.7895L52.207 57.7895L52.1281 57.7895L52.0491 57.7895L51.97 57.7895L51.8909 57.7895L51.8117 57.7895L51.7324 57.7895L51.6531 57.7895L51.5737 57.7895L51.4942 57.7895L51.4146 57.7895L51.335 57.7895L51.2553 57.7895L51.1755 57.7895L51.0956 57.7895L51.0157 57.7895L50.9356 57.7895L50.8555 57.7895L50.7753 57.7895L50.695 57.7895L50.6145 57.7895L50.534 57.7895L50.4535 57.7895L50.3728 57.7895L50.292 57.7895L50.2111 57.7895L50.1301 57.7895L50.049 57.7895L49.9678 57.7895L49.8865 57.7895L49.8051 57.7895L49.7236 57.7895L49.6419 57.7895L49.5602 57.7895L49.4783 57.7895L49.3963 57.7895L49.3142 57.7895L49.232 57.7895L49.1497 57.7895L49.0672 57.7895L48.9846 57.7895L48.9019 57.7895L48.819 57.7895L48.7361 57.7895L48.653 57.7895L48.5697 57.7895L48.4863 57.7895L48.4028 57.7895L48.3192 57.7895L48.2354 57.7895L48.1515 57.7895L48.0674 57.7895L47.9832 57.7895L47.8988 57.7895L47.8143 57.7895L47.7296 57.7895L47.6448 57.7895L47.5599 57.7895L47.4747 57.7895L47.3895 57.7895L47.304 57.7895L47.2184 57.7895L47.1327 57.7895L47.0468 57.7895L46.9607 57.7895L46.8745 57.7895L46.788 57.7895L46.7015 57.7895L46.6147 57.7895L46.5278 57.7895L46.4407 57.7895L46.3534 57.7895L46.2659 57.7895L46.1783 57.7895L46.0905 57.7895L46.0025 57.7895L45.9143 57.7895L45.826 57.7895L45.7374 57.7895L45.6487 57.7895L45.5597 57.7895L45.4706 57.7895L45.3813 57.7895L45.2918 57.7895L45.202 57.7895L45.1121 57.7895L45.022 57.7895L44.9317 57.7895L44.8412 57.7895L44.7505 57.7895L44.6595 57.7895L44.5684 57.7895L44.4771 57.7895L44.3855 57.7895L44.2937 57.7895L44.2017 57.7895L44.1095 57.7895L44.0171 57.7895L43.9245 57.7895L43.8316 57.7895L43.7385 57.7895L43.6452 57.7895L43.5516 57.7895L43.4579 57.7895L43.3639 57.7895L43.2696 57.7895L43.1752 57.7895L43.0805 57.7895L42.9855 57.7895L42.8903 57.7895L42.7949 57.7895L42.6993 57.7895L42.6034 57.7895L42.5072 57.7895L42.4108 57.7895L42.3142 57.7895L42.2173 57.7895L42.1202 57.7895L42.0228 57.7895L41.9251 57.7895L41.8272 57.7895L41.729 57.7895L41.6306 57.7895L41.5319 57.7895L41.433 57.7895L41.3338 57.7895L41.2343 57.7895L41.1346 57.7895L41.0345 57.7895L40.9342 57.7895L40.8337 57.7895L40.7329 57.7895L40.6317 57.7895L40.5304 57.7895L40.4287 57.7895L40.3267 57.7895L40.2245 57.7895L40.122 57.7895L40.0192 57.7895L39.9161 57.7895L39.8127 57.7895L39.7091 57.7895L39.6051 57.7895L39.5008 57.7895L39.3963 57.7895L39.2914 57.7895L39.1863 57.7895L39.0808 57.7895L38.9751 57.7895L38.869 57.7895L38.7627 57.7895L38.656 57.7895L38.549 57.7895L38.4417 57.7895L38.3341 57.7895L38.2262 57.7895L38.118 57.7895L38.0094 57.7895L37.9006 57.7895L37.7914 57.7895L37.6819 57.7895L37.5721 57.7895L37.4619 57.7895L37.3514 57.7895L37.2406 57.7895L37.1295 57.7895L37.018 57.7895L36.9062 57.7895L36.794 57.7895L36.6816 57.7895L36.5687 57.7895L36.4556 57.7895L36.3421 57.7895L36.2282 57.7895L36.114 57.7895L35.9995 57.7895L35.8846 57.7895L35.7694 57.7895L35.6538 57.7895L35.5379 57.7895L35.4216 57.7895L35.3049 57.7895L35.1879 57.7895L35.0705 57.7895L34.9528 57.7895L34.8347 57.7895L34.7162 57.7895L34.5974 57.7895L34.4782 57.7895L34.3587 57.7895L34.2387 57.7895L34.1184 57.7895L33.9977 57.7895L33.8767 57.7895L33.7552 57.7895L33.6334 57.7895L33.5112 57.7895L33.3887 57.7895L33.2657 57.7895L33.1423 57.7895L33.0186 57.7895L32.8945 57.7895L32.7699 57.7895L32.645 57.7895L32.5197 57.7895L32.394 57.7895L32.2679 57.7895L32.1414 57.7895L32.0145 57.7895L31.8872 57.7895L31.7595 57.7895L31.6314 57.7895L31.5029 57.7895L31.3739 57.7895L31.2446 57.7895L31.1149 57.7895L30.9847 57.7895L30.8976 57.7895L30.8976 85.7692Z" stroke="url(#paint2_linear_96_52)" stroke-width="0.611895"/>
</g>
<defs>
<filter id="filter0_b_96_52" x="27.8374" y="12.1015" width="55.1241" height="55.1241" filterUnits="userSpaceOnUse" color-interpolation-filters="sRGB">
<feFlood flood-opacity="0" result="BackgroundImageFix"/>
<feGaussianBlur in="BackgroundImageFix" stdDeviation="6.32423"/>
<feComposite in2="SourceAlpha" operator="in" result="effect1_backgroundBlur_96_52"/>
<feBlend mode="normal" in="SourceGraphic" in2="effect1_backgroundBlur_96_52" result="shape"/>
</filter>
<filter id="filter1_b_96_52" x="16.735" y="43.6268" width="76.7275" height="56.305" filterUnits="userSpaceOnUse" color-interpolation-filters="sRGB">
<feFlood flood-opacity="0" result="BackgroundImageFix"/>
<feGaussianBlur in="BackgroundImageFix" stdDeviation="6.92831"/>
<feComposite in2="SourceAlpha" operator="in" result="effect1_backgroundBlur_96_52"/>
<feBlend mode="normal" in="SourceGraphic" in2="effect1_backgroundBlur_96_52" result="shape"/>
</filter>
<linearGradient id="paint0_linear_96_52" x1="43.4005" y1="49.5817" x2="72.1719" y2="72.6683" gradientUnits="userSpaceOnUse">
<stop stop-color="#529EE3"/>
<stop offset="1" stop-color="#4088F4"/>
</linearGradient>
<linearGradient id="paint1_linear_96_52" x1="40.4858" y1="30.3426" x2="54.8168" y2="53.8795" gradientUnits="userSpaceOnUse">
<stop stop-color="white"/>
<stop offset="0.99715" stop-color="white" stop-opacity="0"/>
</linearGradient>
<linearGradient id="paint2_linear_96_52" x1="32.8896" y1="60.0257" x2="81.22" y2="82.3633" gradientUnits="userSpaceOnUse">
<stop stop-color="white"/>
<stop offset="1" stop-color="white" stop-opacity="0"/>
</linearGradient>
</defs>
</svg>
