<svg width="110" height="110" viewBox="0 0 110 110" fill="none" xmlns="http://www.w3.org/2000/svg">
<rect width="110" height="110" fill="#E8F4FF"/>
<circle cx="55.1664" cy="71.7399" r="15.3884" fill="url(#paint0_linear_96_32)"/>
<g filter="url(#filter0_b_96_32)">
<mask id="path-3-inside-1_96_32" fill="white">
<path fill-rule="evenodd" clip-rule="evenodd" d="M47.2617 30.8208C47.2617 26.4551 50.8008 22.916 55.1665 22.916C59.5322 22.916 63.0713 26.4551 63.0713 30.8208C63.0713 32.8489 62.3075 34.6986 61.052 36.0979C69.3613 37.9788 75.571 44.9134 76.5251 53.3812L77.8587 65.2168C77.9035 65.6138 77.9191 66.0067 77.9073 66.3936H78.5917C80.9345 66.3936 82.8338 68.2928 82.8338 70.6357C82.8338 72.7396 81.2891 74.5297 79.2045 74.8144C61.2207 77.2708 49.5904 77.2501 31.1418 74.8003C29.0532 74.523 27.5001 72.7331 27.5001 70.6262C27.5001 68.2886 29.3951 66.3936 31.7327 66.3936H32.4277C32.416 66.0067 32.4316 65.6138 32.4763 65.2169L33.8099 53.3813C34.7639 44.914 40.9729 37.9797 49.2813 36.0983C48.0255 34.6989 47.2617 32.8491 47.2617 30.8208Z"/>
</mask>
<path fill-rule="evenodd" clip-rule="evenodd" d="M47.2617 30.8208C47.2617 26.4551 50.8008 22.916 55.1665 22.916C59.5322 22.916 63.0713 26.4551 63.0713 30.8208C63.0713 32.8489 62.3075 34.6986 61.052 36.0979C69.3613 37.9788 75.571 44.9134 76.5251 53.3812L77.8587 65.2168C77.9035 65.6138 77.9191 66.0067 77.9073 66.3936H78.5917C80.9345 66.3936 82.8338 68.2928 82.8338 70.6357C82.8338 72.7396 81.2891 74.5297 79.2045 74.8144C61.2207 77.2708 49.5904 77.2501 31.1418 74.8003C29.0532 74.523 27.5001 72.7331 27.5001 70.6262C27.5001 68.2886 29.3951 66.3936 31.7327 66.3936H32.4277C32.416 66.0067 32.4316 65.6138 32.4763 65.2169L33.8099 53.3813C34.7639 44.914 40.9729 37.9797 49.2813 36.0983C48.0255 34.6989 47.2617 32.8491 47.2617 30.8208Z" fill="#B9DDFF" fill-opacity="0.6"/>
<path d="M61.052 36.0979L60.5965 35.6893C60.4516 35.8508 60.4031 36.077 60.469 36.2837C60.5348 36.4905 60.7053 36.6468 60.9169 36.6947L61.052 36.0979ZM76.5251 53.3812L75.9171 53.4498L75.9171 53.4498L76.5251 53.3812ZM77.8587 65.2168L77.2507 65.2854L77.2507 65.2854L77.8587 65.2168ZM77.9073 66.3936L77.2957 66.375C77.2907 66.5404 77.3529 66.7008 77.4681 66.8196C77.5834 66.9384 77.7418 67.0054 77.9073 67.0054V66.3936ZM79.2045 74.8144L79.1217 74.2081L79.1217 74.2081L79.2045 74.8144ZM31.1418 74.8003L31.0613 75.4069L31.0613 75.4069L31.1418 74.8003ZM32.4277 66.3936V67.0054C32.5932 67.0054 32.7517 66.9384 32.8669 66.8196C32.9822 66.7008 33.0444 66.5404 33.0393 66.375L32.4277 66.3936ZM32.4763 65.2169L31.8683 65.1483L31.8683 65.1483L32.4763 65.2169ZM33.8099 53.3813L33.2018 53.3127L33.8099 53.3813ZM49.2813 36.0983L49.4165 36.6951C49.6281 36.6472 49.7985 36.4908 49.8643 36.2841C49.9302 36.0773 49.8816 35.8512 49.7367 35.6897L49.2813 36.0983ZM55.1665 22.3041C50.4628 22.3041 46.6498 26.1172 46.6498 30.8208H47.8736C47.8736 26.7931 51.1387 23.5279 55.1665 23.5279V22.3041ZM63.6832 30.8208C63.6832 26.1172 59.8701 22.3041 55.1665 22.3041V23.5279C59.1942 23.5279 62.4594 26.7931 62.4594 30.8208H63.6832ZM61.5074 36.5066C62.8598 34.9993 63.6832 33.0055 63.6832 30.8208H62.4594C62.4594 32.6923 61.7553 34.3978 60.5965 35.6893L61.5074 36.5066ZM77.1332 53.3127C76.1499 44.5861 69.7504 37.4395 61.1871 35.5011L60.9169 36.6947C68.9722 38.5181 74.9921 45.2408 75.9171 53.4498L77.1332 53.3127ZM78.4668 65.1483L77.1332 53.3127L75.9171 53.4498L77.2507 65.2854L78.4668 65.1483ZM78.5189 66.4121C78.5316 65.9962 78.5148 65.5742 78.4668 65.1483L77.2507 65.2854C77.2922 65.6534 77.3066 66.0172 77.2957 66.375L78.5189 66.4121ZM78.5917 65.7817H77.9073V67.0054H78.5917V65.7817ZM83.4457 70.6357C83.4457 67.9549 81.2725 65.7817 78.5917 65.7817V67.0054C80.5966 67.0054 82.2219 68.6308 82.2219 70.6357H83.4457ZM79.2874 75.4207C81.6787 75.094 83.4457 73.0419 83.4457 70.6357H82.2219C82.2219 72.4373 80.8996 73.9653 79.1217 74.2081L79.2874 75.4207ZM31.0613 75.4069C49.562 77.8636 61.2473 77.8848 79.2874 75.4207L79.1217 74.2081C61.194 76.6569 49.6187 76.6366 31.2224 74.1937L31.0613 75.4069ZM26.8882 70.6262C26.8882 73.0368 28.6655 75.0888 31.0613 75.4069L31.2224 74.1937C29.4409 73.9572 28.112 72.4293 28.112 70.6262H26.8882ZM31.7327 65.7817C29.0571 65.7817 26.8882 67.9506 26.8882 70.6262H28.112C28.112 68.6265 29.733 67.0054 31.7327 67.0054V65.7817ZM32.4277 65.7817H31.7327V67.0054H32.4277V65.7817ZM31.8683 65.1483C31.8203 65.5742 31.8035 65.9962 31.8161 66.4121L33.0393 66.375C33.0285 66.0172 33.0429 65.6534 33.0844 65.2854L31.8683 65.1483ZM33.2018 53.3127L31.8683 65.1483L33.0844 65.2854L34.4179 53.4498L33.2018 53.3127ZM49.1462 35.5016C40.5838 37.4405 34.1851 44.5867 33.2018 53.3127L34.4179 53.4498C35.3428 45.2414 41.362 38.519 49.4165 36.6951L49.1462 35.5016ZM46.6498 30.8208C46.6498 33.0057 47.4733 34.9997 48.8259 36.507L49.7367 35.6897C48.5778 34.3982 47.8736 32.6925 47.8736 30.8208H46.6498Z" fill="url(#paint1_linear_96_32)" mask="url(#path-3-inside-1_96_32)"/>
</g>
<defs>
<filter id="filter0_b_96_32" x="14.0916" y="9.50759" width="82.1505" height="80.5483" filterUnits="userSpaceOnUse" color-interpolation-filters="sRGB">
<feFlood flood-opacity="0" result="BackgroundImageFix"/>
<feGaussianBlur in="BackgroundImageFix" stdDeviation="6.70422"/>
<feComposite in2="SourceAlpha" operator="in" result="effect1_backgroundBlur_96_32"/>
<feBlend mode="normal" in="SourceGraphic" in2="effect1_backgroundBlur_96_32" result="shape"/>
</filter>
<linearGradient id="paint0_linear_96_32" x1="46.6229" y1="67.2878" x2="76.2034" y2="93.2608" gradientUnits="userSpaceOnUse">
<stop stop-color="#529EE3"/>
<stop offset="1" stop-color="#4088F4"/>
</linearGradient>
<linearGradient id="paint1_linear_96_32" x1="37.3811" y1="38.726" x2="70.9773" y2="76.2739" gradientUnits="userSpaceOnUse">
<stop stop-color="white"/>
<stop offset="1" stop-color="white" stop-opacity="0"/>
</linearGradient>
</defs>
</svg>
