<svg width="24" height="24" viewBox="0 0 24 24" fill="none" xmlns="http://www.w3.org/2000/svg">
<path d="M3.99997 21.2998C3.59997 21.4331 3.24997 21.3498 2.94997 21.0498C2.64997 20.7498 2.56663 20.3998 2.69997 19.9998L5.92497 10.9748C6.17497 10.2748 6.6583 9.84547 7.37497 9.6868C8.09163 9.52814 8.7083 9.70747 9.22497 10.2248L13.775 14.7748C14.2916 15.2915 14.471 15.9081 14.313 16.6248C14.155 17.3415 13.7256 17.8248 13.025 18.0748L3.99997 21.2998ZM14.025 12.0248C13.875 11.8748 13.8 11.6998 13.8 11.4998C13.8 11.2998 13.875 11.1248 14.025 10.9748L19.1 5.89981C19.6333 5.36647 20.275 5.0998 21.025 5.0998C21.775 5.0998 22.4166 5.36647 22.95 5.89981L23.05 5.9998C23.1833 6.13314 23.25 6.2998 23.25 6.4998C23.25 6.6998 23.175 6.8748 23.025 7.02481C22.875 7.17481 22.7 7.2498 22.5 7.2498C22.3 7.2498 22.125 7.17481 21.975 7.02481L21.9 6.9498C21.6666 6.71647 21.375 6.5998 21.025 6.5998C20.675 6.5998 20.3833 6.71647 20.15 6.9498L15.05 12.0498C14.9166 12.1831 14.75 12.2498 14.55 12.2498C14.35 12.2498 14.175 12.1748 14.025 12.0248ZM10.025 8.0248C9.87497 7.8748 9.79997 7.6998 9.79997 7.4998C9.79997 7.2998 9.87497 7.1248 10.025 6.9748L10.1 6.89981C10.3333 6.66647 10.45 6.38314 10.45 6.0498C10.45 5.71647 10.3333 5.43314 10.1 5.1998L9.94997 5.0498C9.81663 4.91647 9.74997 4.7498 9.74997 4.5498C9.74997 4.3498 9.82497 4.1748 9.97497 4.0248C10.125 3.8748 10.3 3.7998 10.5 3.7998C10.7 3.7998 10.875 3.8748 11.025 4.0248L11.15 4.1498C11.6833 4.68314 11.95 5.31647 11.95 6.0498C11.95 6.78314 11.6833 7.41647 11.15 7.9498L11.05 8.0498C10.9166 8.18314 10.75 8.2498 10.55 8.2498C10.35 8.2498 10.175 8.1748 10.025 8.0248ZM12.025 10.0248C11.875 9.8748 11.8 9.6998 11.8 9.4998C11.8 9.2998 11.875 9.1248 12.025 8.9748L15.1 5.89981C15.3333 5.66647 15.45 5.3748 15.45 5.0248C15.45 4.6748 15.3333 4.38314 15.1 4.1498L14 3.0498C13.8666 2.91647 13.8 2.7498 13.8 2.5498C13.8 2.3498 13.875 2.1748 14.025 2.0248C14.175 1.8748 14.35 1.7998 14.55 1.7998C14.75 1.7998 14.925 1.8748 15.075 2.0248L16.15 3.0998C16.6833 3.63314 16.95 4.2748 16.95 5.0248C16.95 5.7748 16.6833 6.41647 16.15 6.9498L13.05 10.0498C12.9166 10.1831 12.75 10.2498 12.55 10.2498C12.35 10.2498 12.175 10.1748 12.025 10.0248ZM16.025 14.0248C15.875 13.8748 15.8 13.6998 15.8 13.4998C15.8 13.2998 15.875 13.1248 16.025 12.9748L17.1 11.8998C17.6333 11.3665 18.275 11.0998 19.025 11.0998C19.775 11.0998 20.4166 11.3665 20.95 11.8998L22.05 12.9998C22.1833 13.1331 22.25 13.2998 22.25 13.4998C22.25 13.6998 22.175 13.8748 22.025 14.0248C21.875 14.1748 21.7 14.2498 21.5 14.2498C21.3 14.2498 21.125 14.1748 20.975 14.0248L19.9 12.9498C19.6666 12.7165 19.375 12.5998 19.025 12.5998C18.675 12.5998 18.3833 12.7165 18.15 12.9498L17.05 14.0498C16.9166 14.1831 16.75 14.2498 16.55 14.2498C16.35 14.2498 16.175 14.1748 16.025 14.0248Z" />
</svg>
