<svg width="104" height="31" viewBox="0 0 104 31" fill="none" xmlns="http://www.w3.org/2000/svg">
<path d="M99.732 10.7808V6.23432C99.732 2.65399 98.2487 0.636503 95.2254 0.107978H95.1742C94.9867 0.0738801 94.7991 0.0511482 94.6059 0.028416H94.4468L93.9467 0H93.7989H10.5478C6.32525 0 4.29639 2.05158 4.29639 6.25137V10.8262L0 15.0828L4.27366 19.3565V23.9314C4.27366 27.5117 5.75694 29.5292 8.78033 30.0577H8.83716L9.40546 30.1316H9.56459H10.0647H10.2125H93.4579C97.6804 30.1316 99.7093 28.08 99.7093 23.8802V19.3281L104 15.0828L99.732 10.7808Z" fill="url(#paint0_linear_3590_2901)"/>
<path d="M48.9993 23.7273H37.1729C36.4659 23.7281 35.7657 23.5894 35.1124 23.3192C34.4592 23.049 33.8656 22.6526 33.3657 22.1527C32.8658 21.6528 32.4694 21.0592 32.1992 20.4059C31.929 19.7526 31.7903 19.0525 31.791 18.3455V11.8895C31.8 10.466 32.3702 9.10348 33.3779 8.09792C34.3856 7.09237 35.7493 6.525 37.1729 6.51904H48.8743V10.8211H37.5991C37.4008 10.8186 37.2039 10.8561 37.0204 10.9312C36.8368 11.0064 36.6703 11.1178 36.5307 11.2587C36.3881 11.3962 36.2752 11.5614 36.199 11.7442C36.1227 11.9269 36.0848 12.1234 36.0874 12.3214V17.9249C36.0867 18.1239 36.1252 18.3211 36.2008 18.5052C36.2765 18.6893 36.3877 18.8566 36.5282 18.9975C36.6686 19.1385 36.8355 19.2504 37.0193 19.3267C37.2031 19.403 37.4001 19.4423 37.5991 19.4423H44.6973V16.8452H40.4009V13.3785H48.9993V23.7273Z" fill="#F7F8F8"/>
<path d="M68.1457 18.5601C68.1493 19.9105 67.6228 21.2083 66.6795 22.1746C66.2444 22.6653 65.7096 23.0576 65.1108 23.3252C64.512 23.5927 63.863 23.7294 63.2071 23.726H52.0115V19.4297H62.5593C62.7279 19.4298 62.8947 19.395 63.0492 19.3275C63.2038 19.26 63.3427 19.1613 63.4572 19.0375C63.5813 18.9209 63.6801 18.78 63.7476 18.6236C63.815 18.4672 63.8497 18.2986 63.8493 18.1282C63.8353 17.7911 63.6947 17.4717 63.4556 17.2337C63.2165 16.9956 62.8964 16.8564 62.5593 16.8439H55.893C55.2324 16.8494 54.5784 16.7127 53.9753 16.443C53.3722 16.1734 52.8343 15.7771 52.3979 15.281C51.4609 14.3168 50.9368 13.0253 50.9368 11.6808C50.9368 10.3363 51.4609 9.04478 52.3979 8.08058C52.8343 7.58455 53.3722 7.18823 53.9753 6.91857C54.5784 6.6489 55.2324 6.51219 55.893 6.51774H67.0602V10.8198H56.5352C56.3655 10.8197 56.1974 10.8539 56.0412 10.9203C55.8849 10.9867 55.7437 11.084 55.6259 11.2063C55.5023 11.3206 55.4041 11.4596 55.3375 11.6143C55.271 11.7689 55.2376 11.9358 55.2395 12.1042C55.2387 12.2741 55.2726 12.4423 55.3391 12.5986C55.4055 12.755 55.5031 12.8961 55.6259 13.0135C55.7437 13.1358 55.8849 13.233 56.0412 13.2994C56.1974 13.3658 56.3655 13.4 56.5352 13.3999H63.2071C63.8649 13.3946 64.516 13.5321 65.1155 13.8029C65.715 14.0737 66.2486 14.4714 66.6795 14.9685C67.6209 15.9267 68.1476 17.2168 68.1457 18.5601V18.5601Z" fill="#F7F8F8"/>
<path d="M24.1189 6.51904H16.5775V10.8211H23.687C23.8843 10.8204 24.0797 10.8587 24.2621 10.9338C24.4444 11.0089 24.6101 11.1194 24.7496 11.2589C24.8891 11.3983 24.9995 11.564 25.0747 11.7464C25.1498 11.9288 25.1881 12.1242 25.1874 12.3214V17.9249C25.1906 18.1242 25.1536 18.3221 25.0784 18.5067C25.0031 18.6913 24.8914 18.8588 24.7498 18.999C24.6123 19.1416 24.4471 19.2545 24.2643 19.3308C24.0815 19.407 23.8851 19.445 23.687 19.4423H16.5775V10.8211H12.7415V22.0224C12.7415 23.0454 13.2018 23.6137 14.1111 23.7273H24.1189C25.5424 23.7199 26.9052 23.1499 27.9102 22.1417C28.9151 21.1336 29.4808 19.769 29.4838 18.3455V11.8895C29.4704 10.4703 28.9011 9.11287 27.8981 8.10874C26.895 7.10461 25.5382 6.53386 24.1189 6.51904V6.51904Z" fill="#F2F2F2"/>
<path d="M82.6317 19.431V6.51904H78.3296V19.431H75.7722C75.3723 19.431 74.9886 19.2725 74.7053 18.9902C74.4219 18.7079 74.262 18.3249 74.2605 17.9249V6.55882H69.9641V18.3455C69.9634 19.0525 70.1021 19.7526 70.3723 20.4059C70.6425 21.0592 71.0389 21.6528 71.5388 22.1527C72.0387 22.6526 72.6322 23.049 73.2855 23.3192C73.9388 23.5894 74.639 23.7281 75.346 23.7273H86.6837V19.431H82.6317Z" fill="#F2F2F2"/>
<path d="M90.9859 18.0216V11.2019V7.92844C90.9899 7.58922 90.8714 7.25993 90.6521 7.00103C90.4329 6.74214 90.1277 6.571 89.7924 6.51904H86.6895V19.3969H90.9915L90.9859 18.0216Z" fill="#F2F2F2"/>
<path d="M86.6894 19.397H86.6838V19.425H86.6894V19.397Z" fill="#172A88"/>
<path d="M13.52 7.45606C13.52 7.82023 13.412 8.17623 13.2097 8.47903C13.0074 8.78184 12.7198 9.01784 12.3834 9.15721C12.0469 9.29657 11.6767 9.33304 11.3195 9.26199C10.9623 9.19094 10.6342 9.01557 10.3767 8.75806C10.1192 8.50055 9.94383 8.17246 9.87278 7.81528C9.80174 7.4581 9.8382 7.08787 9.97757 6.75142C10.1169 6.41496 10.3529 6.12739 10.6557 5.92506C10.9585 5.72274 11.3145 5.61475 11.6787 5.61475C11.9205 5.61475 12.16 5.66237 12.3834 5.75491C12.6068 5.84744 12.8097 5.98307 12.9807 6.15405C13.1517 6.32504 13.2873 6.52802 13.3799 6.75142C13.4724 6.97482 13.52 7.21425 13.52 7.45606V7.45606Z" fill="white"/>
<path d="M90.4856 22.6514C90.4856 22.2872 90.5936 21.9312 90.7959 21.6284C90.9982 21.3256 91.2858 21.0896 91.6223 20.9502C91.9587 20.8109 92.3289 20.7744 92.6861 20.8454C93.0433 20.9165 93.3714 21.0919 93.6289 21.3494C93.8864 21.6069 94.0618 21.935 94.1328 22.2922C94.2039 22.6493 94.1674 23.0196 94.0281 23.356C93.8887 23.6925 93.6527 23.98 93.3499 24.1824C93.0471 24.3847 92.6911 24.4927 92.3269 24.4927C91.8386 24.4927 91.3702 24.2987 91.0249 23.9534C90.6796 23.6081 90.4856 23.1397 90.4856 22.6514V22.6514Z" fill="white"/>
<defs>
<linearGradient id="paint0_linear_3590_2901" x1="0" y1="15.0544" x2="104.006" y2="15.0544" gradientUnits="userSpaceOnUse">
<stop offset="0.17" stop-color="#009944"/>
<stop offset="0.66" stop-color="#1D2088"/>
</linearGradient>
</defs>
</svg>
