<svg viewBox="0 0 213 48" fill="none" xmlns="http://www.w3.org/2000/svg">
<path d="M98.9138 46.0478H69.043C67.2574 46.0497 65.4889 45.697 63.8389 45.0101C62.1888 44.3231 60.6895 43.3153 59.4269 42.0443C58.1643 40.7734 57.1631 39.2642 56.4806 37.6033C55.7981 35.9423 55.4478 34.1622 55.4497 32.3648V15.951C55.4724 12.3317 56.9127 8.86761 59.4579 6.31107C62.003 3.75453 65.4475 2.31203 69.043 2.29688H98.598V13.2346H70.1196C69.6186 13.2282 69.1215 13.3234 68.6579 13.5146C68.1942 13.7057 67.7736 13.9889 67.421 14.3472C67.0609 14.6966 66.7757 15.1167 66.5832 15.5814C66.3906 16.0461 66.2947 16.5456 66.3014 17.0491V31.2956C66.2995 31.8015 66.3969 32.3028 66.5879 32.7708C66.7789 33.2388 67.0599 33.6642 67.4146 34.0226C67.7694 34.381 68.1909 34.6654 68.6551 34.8595C69.1193 35.0535 69.617 35.1534 70.1196 35.1534H88.0478V28.5503H77.1961V19.7365H98.9138V46.0478Z" fill="#1485EE"/>
<path d="M147.273 32.9142C147.282 36.3474 145.952 39.6471 143.569 42.1037C142.471 43.3514 141.12 44.3487 139.607 45.029C138.095 45.7092 136.456 46.0567 134.799 46.0482H106.522V35.1249H133.163C133.589 35.1252 134.01 35.0368 134.4 34.8653C134.791 34.6937 135.142 34.4426 135.431 34.1279C135.744 33.8313 135.994 33.4731 136.164 33.0755C136.335 32.6778 136.422 32.2492 136.421 31.8161C136.386 30.9591 136.031 30.147 135.427 29.5418C134.823 28.9365 134.014 28.5827 133.163 28.5507H116.325C114.657 28.5648 113.005 28.2173 111.482 27.5316C109.959 26.846 108.6 25.8384 107.498 24.5773C105.131 22.1259 103.807 18.8423 103.807 15.424C103.807 12.0057 105.131 8.72212 107.498 6.2707C108.6 5.00957 109.959 4.00197 111.482 3.31636C113.005 2.63074 114.657 2.28318 116.325 2.29729H144.531V13.235H117.947C117.519 13.2348 117.094 13.3217 116.7 13.4906C116.305 13.6594 115.948 13.9066 115.651 14.2175C115.339 14.5083 115.091 14.8616 114.922 15.2549C114.754 15.6481 114.67 16.0724 114.675 16.5004C114.673 16.9323 114.758 17.36 114.926 17.7575C115.094 18.155 115.341 18.5139 115.651 18.8122C115.948 19.1231 116.305 19.3704 116.7 19.5392C117.094 19.708 117.519 19.7949 117.947 19.7948H134.799C136.461 19.7812 138.105 20.1308 139.619 20.8193C141.134 21.5078 142.481 22.5188 143.569 23.7826C145.947 26.2189 147.278 29.4989 147.273 32.9142Z" fill="#1485EE"/>
<path d="M36.0718 2.29688H17.024V13.2346H34.9809C35.4791 13.2327 35.9727 13.33 36.4333 13.5211C36.8939 13.7121 37.3124 13.993 37.6647 14.3476C38.017 14.7022 38.296 15.1234 38.4858 15.5871C38.6755 16.0507 38.7723 16.5476 38.7704 17.0491V31.2956C38.7786 31.8022 38.685 32.3054 38.495 32.7747C38.3051 33.244 38.0228 33.6698 37.6651 34.0264C37.3179 34.3889 36.9006 34.6759 36.439 34.8698C35.9773 35.0636 35.4811 35.1601 34.9809 35.1534H17.024V13.2346H7.33496V41.7131C7.33496 44.3139 8.49764 45.7588 10.7943 46.0478H36.0718C39.6672 46.0287 43.1092 44.5796 45.6476 42.0164C48.1859 39.4533 49.6145 35.9839 49.622 32.3648V15.951C49.5884 12.3427 48.1505 8.89149 45.617 6.33856C43.0835 3.78564 39.6564 2.33454 36.0718 2.29688Z" fill="#1485EE"/>
<path d="M183.861 35.1245V2.29688H172.995V35.1245H166.536C165.526 35.1245 164.557 34.7216 163.841 34.0039C163.126 33.2863 162.722 32.3124 162.718 31.2956V2.39802H151.866V32.3648C151.864 34.1622 152.215 35.9423 152.897 37.6033C153.58 39.2642 154.581 40.7734 155.843 42.0443C157.106 43.3153 158.605 44.3231 160.255 45.0101C161.905 45.697 163.674 46.0497 165.46 46.0478H194.096V35.1245H183.861Z" fill="#1485EE"/>
<path d="M204.962 31.5412V14.2027V5.88017C204.972 5.01772 204.672 4.18053 204.119 3.5223C203.565 2.86407 202.794 2.42897 201.947 2.29688H194.11V35.0378H204.976L204.962 31.5412Z" fill="#1485EE"/>
<path d="M9.30144 4.6814C9.30144 5.60729 9.02868 6.51239 8.51765 7.28225C8.00662 8.0521 7.28028 8.65213 6.43047 9.00645C5.58067 9.36077 4.64556 9.45348 3.74341 9.27285C2.84126 9.09222 2.01258 8.64636 1.36217 7.99165C0.711752 7.33694 0.268813 6.5028 0.0893639 5.5947C-0.0900851 4.68659 0.0020163 3.74532 0.354018 2.88991C0.70602 2.03449 1.30211 1.30336 2.06692 0.788957C2.83173 0.274558 3.73089 0 4.65072 0C5.26146 0 5.86622 0.121087 6.43047 0.35635C6.99472 0.591612 7.50742 0.936443 7.93928 1.37115C8.37113 1.80586 8.7137 2.32193 8.94742 2.88991C9.18114 3.45788 9.30144 4.06663 9.30144 4.6814Z" fill="#1485EE"/>
<path d="M203.699 43.3181C203.699 42.3922 203.971 41.4871 204.483 40.7173C204.994 39.9474 205.72 39.3474 206.57 38.9931C207.42 38.6387 208.355 38.546 209.257 38.7267C210.159 38.9073 210.988 39.3532 211.638 40.0079C212.288 40.6626 212.731 41.4967 212.911 42.4048C213.09 43.3129 212.998 44.2542 212.646 45.1096C212.294 45.965 211.698 46.6962 210.933 47.2106C210.168 47.725 209.269 47.9995 208.349 47.9995C207.116 47.9995 205.933 47.5063 205.061 46.6284C204.189 45.7504 203.699 44.5597 203.699 43.3181Z" fill="#1485EE"/>
</svg>
