
<svg width="190" height="82" viewBox="0 0 190 82" fill="none" xmlns="http://www.w3.org/2000/svg">
<path d="M168 82L155.01 59.5H180.99L168 82Z" fill="#1E2F44"/>
<rect width="190" height="72" rx="10" fill="#1E2F44"/>
<path d="M31.8048 17.9258V26.8945H30.5059V17.9258H31.8048ZM21.7149 24.1328C23.6358 23.4219 24.7706 21.6582 24.7774 19.8125V18.5957H26.1036V19.8125C26.0968 21.6035 27.2315 23.2441 29.1251 23.9004L28.4552 24.9395C27.0401 24.4131 25.9942 23.374 25.4473 22.0479C24.9073 23.4697 23.8477 24.6045 22.4122 25.1582L21.7149 24.1328ZM23.793 29.9023V26.0469H25.1055V28.8496H32.1739V29.9023H23.793ZM43.3444 17.9121V24.4883H42.0455V17.9121H43.3444ZM33.4323 21.3164C33.4391 19.6348 34.82 18.4658 36.6998 18.4727C38.5729 18.4658 39.9537 19.6348 39.9537 21.3164C39.9537 22.9912 38.5729 24.1602 36.6998 24.1465C34.82 24.1602 33.4391 22.9912 33.4323 21.3164ZM34.7037 21.3164C34.6969 22.376 35.5377 23.0801 36.6998 23.0801C37.8483 23.0801 38.6823 22.376 38.6823 21.3164C38.6823 20.2705 37.8483 19.5596 36.6998 19.5664C35.5377 19.5596 34.6969 20.2705 34.7037 21.3164ZM35.3327 30.0117V25.0762H36.6041V26.457H42.0592V25.0762H43.3444V30.0117H35.3327ZM36.6041 28.9453H42.0592V27.4824H36.6041V28.9453ZM48.4719 20.2637C48.4719 21.6035 49.3264 22.957 50.9191 23.5586L50.2355 24.5566C49.0939 24.1191 48.2941 23.2852 47.8566 22.2803C47.4055 23.415 46.5715 24.3994 45.382 24.9121L44.6711 23.9004C46.3254 23.1826 47.2141 21.624 47.2141 20.2637V18.6777H48.4719V20.2637ZM46.9269 27.9199C46.9133 26.5254 48.5061 25.6982 51.0695 25.6914C53.6262 25.6982 55.2326 26.5254 55.2394 27.9199C55.2326 29.3145 53.6262 30.1416 51.0695 30.1348C48.5061 30.1416 46.9133 29.3145 46.9269 27.9199ZM48.2121 27.9199C48.1984 28.6992 49.2853 29.1504 51.0695 29.1367C52.8469 29.1504 53.9338 28.6992 53.9406 27.9199C53.9338 27.1338 52.8469 26.6826 51.0695 26.6895C49.2853 26.6826 48.1984 27.1338 48.2121 27.9199ZM51.3019 25.0762V18.1445H52.5051V21.1113H53.9406V17.9258H55.1711V25.459H53.9406V22.1777H52.5051V25.0762H51.3019ZM69.2816 17.9121V24.4883H67.9827V17.9121H69.2816ZM59.3694 21.3164C59.3763 19.6348 60.7571 18.4658 62.637 18.4727C64.5101 18.4658 65.8909 19.6348 65.8909 21.3164C65.8909 22.9912 64.5101 24.1602 62.637 24.1465C60.7571 24.1602 59.3763 22.9912 59.3694 21.3164ZM60.6409 21.3164C60.6341 22.376 61.4749 23.0801 62.637 23.0801C63.7855 23.0801 64.6194 22.376 64.6194 21.3164C64.6194 20.2705 63.7855 19.5596 62.637 19.5664C61.4749 19.5596 60.6341 20.2705 60.6409 21.3164ZM61.2698 30.0117V25.0762H62.5413V26.457H67.9964V25.0762H69.2816V30.0117H61.2698ZM62.5413 28.9453H67.9964V27.4824H62.5413V28.9453ZM77.9774 19.1562V20.1953H70.6766V19.1562H73.6844V17.8574H74.9833V19.1562H77.9774ZM71.3466 22.9707C71.3397 21.6309 72.5565 20.7559 74.327 20.7422C76.0907 20.7559 77.2938 21.6309 77.2938 22.9707C77.2938 24.3174 76.0907 25.1992 74.327 25.1992C72.5565 25.1992 71.3397 24.3174 71.3466 22.9707ZM72.1942 27.25V26.1973H80.288V30.1621H78.9891V27.25H72.1942ZM72.6044 22.9707C72.5907 23.7295 73.288 24.1875 74.327 24.1875C75.3661 24.1875 76.0634 23.7295 76.077 22.9707C76.0634 22.2188 75.3661 21.7471 74.327 21.7402C73.288 21.7471 72.5907 22.2188 72.6044 22.9707ZM78.9891 25.5684V17.9121H80.288V21.2344H82.0653V22.3145H80.288V25.5684H78.9891ZM89.0248 19.2246V19.9766C89.018 21.0088 89.018 22.5879 88.6694 24.7754L87.3842 24.6797C87.6987 22.7246 87.7328 21.2959 87.7397 20.2773H82.7631V19.2246H89.0248ZM82.0795 26.4707C82.8452 26.4639 83.6996 26.457 84.5952 26.4365V22.7246H85.8803V26.3955C87.1791 26.3408 88.5121 26.2588 89.7358 26.1016L89.8041 27.0723C87.2543 27.4824 84.4037 27.5371 82.2299 27.5234L82.0795 26.4707ZM90.433 30.1621V17.9121H91.7455V22.9707H93.6186V24.0781H91.7455V30.1621H90.433ZM103.422 18.8418V19.5254C103.409 20.3457 103.409 21.5625 103.108 23.1484L101.823 23.0254C102.089 21.6719 102.13 20.6807 102.144 19.9082H97.2427V18.8418H103.422ZM96.5044 24.2012C97.2564 24.2012 98.1109 24.1943 99.0064 24.1738V21.5898H100.292V24.1328C101.604 24.0781 102.958 23.9824 104.188 23.8047L104.27 24.748C101.713 25.1992 98.7877 25.2471 96.6275 25.2539L96.5044 24.2012ZM98.3638 29.9023V26.2793H99.6627V28.8496H106.69V29.9023H98.3638ZM104.967 27.1133V17.9121H106.294V21.8086H107.975V22.9023H106.294V27.1133H104.967ZM113.978 18.7734V22.4648H109.931V24.2832C111.975 24.2764 113.185 24.2148 114.62 23.9688L114.757 25.0215C113.164 25.3018 111.859 25.3359 109.534 25.3359H108.632V21.4668H112.665V19.8125H108.605V18.7734H113.978ZM110.3 29.8613V26.2656H111.599V28.7949H118.708V29.8613H110.3ZM114.771 23.7227V22.6562H117.054V20.9609H114.771V19.9219H117.054V17.9258H118.353V26.9355H117.054V23.7227H114.771ZM126.816 21.8359V22.8887H124.424V24.4404C125.51 24.3857 126.591 24.3105 127.595 24.2012L127.691 25.1582C125.08 25.5137 122.216 25.5889 119.912 25.582L119.734 24.543C120.78 24.5361 121.942 24.5225 123.138 24.4883V22.8887H120.828V18.6914H126.707V19.7441H122.127V21.8359H126.816ZM121.757 29.9023V26.4434H123.056V28.8496H130.22V29.9023H121.757ZM128.539 27.0996V17.9121H129.838V27.0996H128.539ZM144.221 17.9121V24.2422H142.936V17.9121H144.221ZM134.214 23.2715C136.114 22.6836 137.297 21.207 137.304 19.6211H134.555V18.5684H141.309V19.6211H138.616C138.616 21.1182 139.785 22.499 141.692 23.0391L141.063 24.0371C139.614 23.6064 138.534 22.6836 137.98 21.5078C137.44 22.8066 136.319 23.8252 134.815 24.2969L134.214 23.2715ZM136.182 25.8008V24.8027H144.235V27.8379H137.481V29.0273H144.645V30.0391H136.223V26.8945H142.95V25.8008H136.182ZM156.814 24.1055V25.1582H151.947V27.5371H150.661V25.1582H145.603V24.1055H156.814ZM146.997 29.9023V26.375H148.296V28.8496H155.57V29.9023H146.997ZM147.038 22.834V18.4863H155.365V22.834H147.038ZM148.31 21.8086H154.079V19.5117H148.31V21.8086ZM162.734 18.1172C165.496 18.1104 167.102 18.8555 167.109 20.2227C167.102 21.5967 165.496 22.3418 162.734 22.3418C159.973 22.3418 158.352 21.5967 158.359 20.2227C158.352 18.8555 159.973 18.1104 162.734 18.1172ZM157.156 24.1328V23.0938H168.326V24.1328H157.156ZM158.496 26.0469V25.0762H166.918V27.9473H159.781V29.041H167.26V30.0391H158.51V27.0039H165.633V26.0469H158.496ZM159.713 20.2227C159.706 20.9814 160.786 21.3711 162.734 21.3711C164.696 21.3711 165.776 20.9814 165.769 20.2227C165.776 19.498 164.696 19.0742 162.734 19.0742C160.786 19.0742 159.706 19.498 159.713 20.2227ZM46.2363 41.9121V54.1895H44.9374V47.3809H42.4081V46.3145H44.9374V41.9121H46.2363ZM35.873 50.7715C37.746 49.876 39.0654 47.5586 39.0722 45.3574V44.209H36.3652V43.1426H43.1054V44.209H40.3847V45.3574C40.3847 47.4287 41.6904 49.6641 43.5702 50.498L42.7909 51.5371C41.3759 50.8535 40.289 49.4248 39.7421 47.7568C39.1952 49.5342 38.081 51.0586 36.6659 51.7832L35.873 50.7715ZM58.0903 41.9121V54.1621H56.8462V41.9121H58.0903ZM47.686 47.2031C47.686 44.5508 48.7251 42.8896 50.3247 42.8965C51.8149 42.8896 52.8198 44.3047 52.9702 46.6016H54.3579V42.1445H55.602V53.5605H54.3579V47.6543H52.977C52.8608 50.0469 51.8423 51.5303 50.3247 51.5234C48.7251 51.5303 47.686 49.8623 47.686 47.2031ZM48.8891 47.2031C48.8891 49.1514 49.4429 50.2998 50.3247 50.293C51.227 50.2998 51.7876 49.1514 51.7876 47.2031C51.7876 45.248 51.227 44.1064 50.3247 44.1133C49.4429 44.1064 48.8891 45.248 48.8891 47.2031ZM69.6162 41.9121V54.1621H68.3858V41.9121H69.6162ZM59.0479 50.6211C61.6455 49.0762 62.8897 47.0186 63.1153 44.4961H59.6221V43.4297H64.4073C64.4004 44.626 64.2364 45.7676 63.8604 46.834H65.8018V42.2266H67.0323V53.5605H65.8018V47.873H63.4092C62.6846 49.2949 61.5157 50.5391 59.7862 51.5508L59.0479 50.6211ZM83.631 41.9121V48.2422H82.3459V41.9121H83.631ZM73.6232 47.2715C75.5236 46.6836 76.7062 45.207 76.713 43.6211H73.965V42.5684H80.7189V43.6211H78.0255C78.0255 45.1182 79.1945 46.499 81.1017 47.0391L80.4728 48.0371C79.0236 47.6064 77.9435 46.6836 77.3898 45.5078C76.8498 46.8066 75.7287 47.8252 74.2248 48.2969L73.6232 47.2715ZM75.5919 49.8008V48.8027H83.6447V51.8379H76.8908V53.0273H84.0548V54.0391H75.633V50.8945H82.3595V49.8008H75.5919ZM89.0183 42.7871C90.9529 42.7803 92.3474 43.9766 92.3542 45.6992C92.3474 47.4219 90.9529 48.6182 89.0183 48.625C87.0905 48.6182 85.6755 47.4219 85.6823 45.6992C85.6755 43.9766 87.0905 42.7803 89.0183 42.7871ZM85.0945 50.4707C87.323 50.4707 90.4128 50.4502 93.0925 50.0605L93.1882 51.0039C90.4196 51.5371 87.446 51.5508 85.2585 51.5508L85.0945 50.4707ZM86.9675 45.6992C86.9538 46.7861 87.8288 47.4902 89.0183 47.4902C90.2077 47.4902 91.0827 46.7861 91.0827 45.6992C91.0827 44.626 90.2077 43.9082 89.0183 43.9082C87.8288 43.9082 86.9538 44.626 86.9675 45.6992ZM93.8581 54.1895V41.9121H95.157V54.1895H93.8581ZM102.622 43.9355V44.9883H96.5384V43.9355H98.9446V42.2676H100.23V43.9355H102.622ZM96.9348 48.543C96.928 46.8955 98.0491 45.7266 99.5872 45.7266C101.139 45.7266 102.246 46.8955 102.253 48.543C102.246 50.2178 101.139 51.3936 99.5872 51.3867C98.0491 51.3936 96.928 50.2178 96.9348 48.543ZM98.0833 48.543C98.0764 49.582 98.7054 50.2793 99.5872 50.2793C100.469 50.2793 101.105 49.582 101.105 48.543C101.105 47.5244 100.469 46.8135 99.5872 46.8066C98.7054 46.8135 98.0764 47.5244 98.0833 48.543ZM103.183 53.5879V42.1855H104.413V47.0117H105.822V41.9121H107.052V54.1621H105.822V48.0781H104.413V53.5879H103.183ZM119.275 48.8164V49.8691H114.299V54.1484H113.027V49.8691H108.105V48.8164H119.275ZM108.734 46.8613C111.017 46.5469 112.918 45.1865 112.959 43.6758H109.144V42.6367H118.223V43.6758H114.435C114.456 45.1865 116.343 46.5469 118.66 46.8613L118.181 47.8867C116.172 47.5723 114.435 46.5811 113.69 45.1865C112.938 46.5811 111.209 47.5723 109.226 47.8867L108.734 46.8613ZM123.377 45.2617C123.377 47.2168 124.198 49.3018 125.838 50.3066L125.114 51.3047C123.965 50.6143 123.193 49.3906 122.769 47.9756C122.325 49.5273 121.477 50.8535 120.287 51.5781L119.481 50.6074C121.21 49.5684 122.126 47.4014 122.12 45.3164V43.0332H123.377V45.2617ZM124.512 47.2988V46.2188H126.412V42.1445H127.643V53.5605H126.412V47.2988H124.512ZM128.942 54.1621V41.9121H130.186V54.1621H128.942ZM142.395 51.5508V52.6309H131.185V51.5508H133.864V48.3516C132.859 47.7979 132.244 46.9229 132.251 45.8223C132.244 43.8945 134.138 42.6299 136.763 42.623C139.395 42.6299 141.288 43.8945 141.288 45.8223C141.288 46.9023 140.7 47.7705 139.716 48.3242V51.5508H142.395ZM133.509 45.8223C133.509 47.1348 134.842 47.9893 136.763 47.9961C138.67 47.9893 140.023 47.1348 140.03 45.8223C140.023 44.5029 138.67 43.6621 136.763 43.6621C134.842 43.6621 133.509 44.5029 133.509 45.8223ZM135.149 51.5508H138.403V48.8301C137.904 48.9463 137.351 49.0078 136.763 49.0078C136.188 49.0078 135.642 48.9463 135.149 48.8301V51.5508ZM143.585 48.8301C144.043 48.3242 144.597 48.0645 145.212 48.0645C146.279 48.0645 147.222 48.8438 148.261 48.8438C148.883 48.8438 149.43 48.5635 149.861 48.0234V49.3359C149.403 49.8418 148.849 50.1016 148.234 50.1016C147.168 50.1016 146.217 49.3223 145.171 49.3223C144.563 49.3223 144.016 49.6025 143.585 50.1426V48.8301ZM153.32 43.1016L153.197 50.1426H151.844L151.721 43.1016H153.32ZM151.557 52.125C151.55 51.5918 151.994 51.1543 152.527 51.1543C153.054 51.1543 153.491 51.5918 153.498 52.125C153.491 52.6582 153.054 53.0889 152.527 53.0957C151.994 53.0889 151.55 52.6582 151.557 52.125Z" fill="#F8FAFD"/>
</svg>
