<svg width="18" height="18" viewBox="0 0 18 18" fill="none" xmlns="http://www.w3.org/2000/svg">
<mask id="mask0_100_65" style="mask-type:alpha" maskUnits="userSpaceOnUse" x="0" y="0" width="18" height="18">
<rect width="18" height="18" fill="#D9D9D9"/>
</mask>
<g mask="url(#mask0_100_65)">
</g>
<path d="M8.25 7.6125L7.575 6.95625C7.425 6.81875 7.24675 6.753 7.04025 6.759C6.83375 6.765 6.662 6.837 6.525 6.975C6.3875 7.1125 6.31875 7.2875 6.31875 7.5C6.31875 7.7125 6.3875 7.8875 6.525 8.025L8.475 9.975C8.625 10.125 8.8 10.2 9 10.2C9.2 10.2 9.375 10.125 9.525 9.975L11.4937 8.00625C11.6312 7.86875 11.697 7.69675 11.691 7.49025C11.685 7.28375 11.613 7.112 11.475 6.975C11.3375 6.8375 11.1655 6.76875 10.959 6.76875C10.7525 6.76875 10.5745 6.8375 10.425 6.975L9.75 7.6125V5.23125C9.75 5.01875 9.678 4.84375 9.534 4.70625C9.39 4.56875 9.212 4.5 9 4.5C8.7875 4.5 8.60925 4.572 8.46525 4.716C8.32125 4.86 8.2495 5.038 8.25 5.25V7.6125ZM6 12.75H12.0187C12.2312 12.75 12.4063 12.678 12.5438 12.534C12.6813 12.39 12.75 12.212 12.75 12C12.75 11.7875 12.678 11.6092 12.534 11.4652C12.39 11.3212 12.212 11.2495 12 11.25H5.98125C5.76875 11.25 5.59375 11.322 5.45625 11.466C5.31875 11.61 5.25 11.788 5.25 12C5.25 12.2125 5.322 12.3907 5.466 12.5347C5.61 12.6787 5.788 12.7505 6 12.75ZM9 16.5C7.9625 16.5 6.9875 16.303 6.075 15.909C5.1625 15.515 4.36875 14.9808 3.69375 14.3063C3.01875 13.6313 2.4845 12.8375 2.091 11.925C1.6975 11.0125 1.5005 10.0375 1.5 9C1.5 7.9625 1.697 6.9875 2.091 6.075C2.485 5.1625 3.01925 4.36875 3.69375 3.69375C4.36875 3.01875 5.1625 2.4845 6.075 2.091C6.9875 1.6975 7.9625 1.5005 9 1.5C10.0375 1.5 11.0125 1.697 11.925 2.091C12.8375 2.485 13.6313 3.01925 14.3063 3.69375C14.9813 4.36875 15.5157 5.1625 15.9097 6.075C16.3037 6.9875 16.5005 7.9625 16.5 9C16.5 10.0375 16.303 11.0125 15.909 11.925C15.515 12.8375 14.9808 13.6313 14.3063 14.3063C13.6313 14.9813 12.8375 15.5157 11.925 15.9097C11.0125 16.3037 10.0375 16.5005 9 16.5ZM9 15C10.6625 15 12.0783 14.4158 13.2473 13.2473C14.4163 12.0788 15.0005 10.663 15 9C15 7.3375 14.4158 5.92175 13.2473 4.75275C12.0788 3.58375 10.663 2.9995 9 3C7.3375 3 5.92175 3.58425 4.75275 4.75275C3.58375 5.92125 2.9995 7.337 3 9C3 10.6625 3.58425 12.0783 4.75275 13.2473C5.92125 14.4163 7.337 15.0005 9 15Z" fill="#1485EE"/>
</svg>
