<svg width="131" height="147" viewBox="0 0 131 147" fill="none" xmlns="http://www.w3.org/2000/svg">
<g filter="url(#filter0_d_88_838)">
<rect x="0.0931396" width="44.907" height="44.907" rx="12" transform="rotate(0.118781 0.0931396 0)" fill="#E8F0FD"/>
</g>
<rect x="9.87506" y="31.0713" width="16.5597" height="6.02172" rx="3.01086" transform="rotate(-45 9.87506 31.0713)" fill="url(#paint0_linear_88_838)"/>
<g filter="url(#filter1_b_88_838)">
<path d="M31.6816 28.5774C27.5244 32.7345 20.7167 32.6668 16.476 28.4261C12.2353 24.1854 12.1675 17.3776 16.3247 13.2205C20.4818 9.06338 27.2896 9.13112 31.5303 13.3718C35.7709 17.6125 35.8387 24.4203 31.6816 28.5774Z" fill="#9FCAF2" fill-opacity="0.6"/>
</g>
<g filter="url(#filter2_b_88_838)">
<path d="M17.116 27.786C20.8567 31.5267 26.9561 31.4175 30.7389 27.6347C34.5216 23.852 34.6309 17.7526 30.8902 14.0119C27.1495 10.2712 21.0501 10.3805 17.2674 14.1632C13.4846 17.9459 13.3754 24.0453 17.116 27.786Z" stroke="url(#paint1_linear_88_838)" stroke-width="2.44758"/>
</g>
<defs>
<filter id="filter0_d_88_838" x="-69.7278" y="-53.6266" width="200.557" height="200.557" filterUnits="userSpaceOnUse" color-interpolation-filters="sRGB">
<feFlood flood-opacity="0" result="BackgroundImageFix"/>
<feColorMatrix in="SourceAlpha" type="matrix" values="0 0 0 0 0 0 0 0 0 0 0 0 0 0 0 0 0 0 127 0" result="hardAlpha"/>
<feMorphology radius="11.6285" operator="erode" in="SourceAlpha" result="effect1_dropShadow_88_838"/>
<feOffset dx="8.05051" dy="24.1515"/>
<feGaussianBlur stdDeviation="44.7251"/>
<feComposite in2="hardAlpha" operator="out"/>
<feColorMatrix type="matrix" values="0 0 0 0 0.0846354 0 0 0 0 0.203125 0 0 0 0 0.3125 0 0 0 0.1 0"/>
<feBlend mode="normal" in2="BackgroundImageFix" result="effect1_dropShadow_88_838"/>
<feBlend mode="normal" in="SourceGraphic" in2="effect1_dropShadow_88_838" result="shape"/>
</filter>
<filter id="filter1_b_88_838" x="-0.425241" y="-3.52937" width="48.8567" height="48.8566" filterUnits="userSpaceOnUse" color-interpolation-filters="sRGB">
<feFlood flood-opacity="0" result="BackgroundImageFix"/>
<feGaussianBlur in="BackgroundImageFix" stdDeviation="6.83793"/>
<feComposite in2="SourceAlpha" operator="in" result="effect1_backgroundBlur_88_838"/>
<feBlend mode="normal" in="SourceGraphic" in2="effect1_backgroundBlur_88_838" result="shape"/>
</filter>
<filter id="filter2_b_88_838" x="-0.530161" y="-3.63386" width="49.0665" height="49.0665" filterUnits="userSpaceOnUse" color-interpolation-filters="sRGB">
<feFlood flood-opacity="0" result="BackgroundImageFix"/>
<feGaussianBlur in="BackgroundImageFix" stdDeviation="6.83793"/>
<feComposite in2="SourceAlpha" operator="in" result="effect1_backgroundBlur_88_838"/>
<feBlend mode="normal" in="SourceGraphic" in2="effect1_backgroundBlur_88_838" result="shape"/>
</filter>
<linearGradient id="paint0_linear_88_838" x1="10.9976" y1="26.7798" x2="2.66109" y2="39.4618" gradientUnits="userSpaceOnUse">
<stop stop-color="#529EE3"/>
<stop offset="1" stop-color="#4088F4"/>
</linearGradient>
<linearGradient id="paint1_linear_88_838" x1="8.32605" y1="12.2744" x2="32.7802" y2="26.328" gradientUnits="userSpaceOnUse">
<stop stop-color="white"/>
<stop offset="1" stop-color="white" stop-opacity="0"/>
</linearGradient>
</defs>
</svg>
