<svg viewBox="0 0 15 15" fill="none" xmlns="http://www.w3.org/2000/svg">
<path d="M12.1875 12.8126H2.8125C2.40413 12.8176 2.01041 12.6606 1.71756 12.376C1.42471 12.0913 1.25658 11.7022 1.25 11.2939V3.70637C1.25658 3.29802 1.42471 2.90892 1.71756 2.62427C2.01041 2.33961 2.40413 2.1826 2.8125 2.18762H5.6875C5.77982 2.18823 5.87085 2.20928 5.95406 2.24927C6.03727 2.28925 6.11059 2.34717 6.16875 2.41887L7.79375 4.40637H12.1687C12.3725 4.40139 12.5753 4.43682 12.7653 4.5106C12.9553 4.58439 13.1288 4.69508 13.2758 4.83628C13.4228 4.97748 13.5404 5.14639 13.6218 5.33327C13.7032 5.52016 13.7468 5.72131 13.75 5.92512V11.2939C13.7434 11.7022 13.5753 12.0913 13.2824 12.376C12.9896 12.6606 12.5959 12.8176 12.1875 12.8126ZM2.5 8.60012V11.2939C2.50235 11.3322 2.51237 11.3697 2.52946 11.4041C2.54655 11.4385 2.57037 11.4692 2.5995 11.4942C2.62863 11.5193 2.66249 11.5382 2.69907 11.55C2.73566 11.5617 2.77423 11.566 2.8125 11.5626H12.1875C12.2258 11.566 12.2643 11.5617 12.3009 11.55C12.3375 11.5382 12.3714 11.5193 12.4005 11.4942C12.4296 11.4692 12.4534 11.4385 12.4705 11.4041C12.4876 11.3697 12.4976 11.3322 12.5 11.2939V5.92512C12.4976 5.88676 12.4876 5.84927 12.4705 5.81486C12.4534 5.78045 12.4296 5.74981 12.4005 5.72475C12.3714 5.6997 12.3375 5.68074 12.3009 5.66899C12.2643 5.65725 12.2258 5.65295 12.1875 5.65637H7.5C7.40768 5.65576 7.31665 5.6347 7.23344 5.59472C7.15023 5.55473 7.07691 5.49681 7.01875 5.42512L5.39375 3.43762H2.8125C2.77423 3.4342 2.73566 3.4385 2.69907 3.45024C2.66249 3.46199 2.62863 3.48095 2.5995 3.506C2.57037 3.53106 2.54655 3.5617 2.52946 3.59611C2.51237 3.63052 2.50235 3.66801 2.5 3.70637V8.60012Z" fill="#424344"/>
</svg>
