<svg width="140" height="140" viewBox="0 0 140 140" fill="none" xmlns="http://www.w3.org/2000/svg">
<mask id="mask0_92_59" style="mask-type:alpha" maskUnits="userSpaceOnUse" x="0" y="0" width="140" height="140">
<rect width="140" height="140" fill="#D9D9D9"/>
</mask>
<g mask="url(#mask0_92_59)">
<g filter="url(#filter0_d_92_59)">
<path d="M0.289673 0L140 0.289636L139.71 140L3.69427e-05 139.71L0.289673 0Z" fill="white"/>
</g>
<circle cx="70.4634" cy="90.9734" r="19.866" fill="url(#paint0_linear_92_59)"/>
<g filter="url(#filter1_b_92_59)">
<mask id="path-4-inside-1_92_59" fill="white">
<path fill-rule="evenodd" clip-rule="evenodd" d="M60.2589 38.1502C60.2589 32.5142 64.8278 27.9453 70.4638 27.9453C76.0999 27.9453 80.6688 32.5142 80.6688 38.1502C80.6688 40.7675 79.6834 43.1547 78.0635 44.9611C88.7893 47.39 96.8047 56.3419 98.0364 67.2728L99.758 82.5522C99.8158 83.0653 99.8359 83.5732 99.8206 84.0733H100.705C103.73 84.0733 106.181 86.5252 106.181 89.5498C106.181 92.2659 104.187 94.5768 101.496 94.9444C78.2795 98.1156 63.2651 98.0888 39.4485 94.9262C36.7522 94.5682 34.7471 92.2575 34.7471 89.5375C34.7471 86.5197 37.1935 84.0733 40.2113 84.0733H41.1078C41.0925 83.5732 41.1126 83.0653 41.1705 82.5522L42.8921 67.2728C44.1237 56.3421 52.1389 47.3903 62.8643 44.9612C61.2443 43.1548 60.2589 40.7676 60.2589 38.1502Z"/>
</mask>
<path fill-rule="evenodd" clip-rule="evenodd" d="M60.2589 38.1502C60.2589 32.5142 64.8278 27.9453 70.4638 27.9453C76.0999 27.9453 80.6688 32.5142 80.6688 38.1502C80.6688 40.7675 79.6834 43.1547 78.0635 44.9611C88.7893 47.39 96.8047 56.3419 98.0364 67.2728L99.758 82.5522C99.8158 83.0653 99.8359 83.5732 99.8206 84.0733H100.705C103.73 84.0733 106.181 86.5252 106.181 89.5498C106.181 92.2659 104.187 94.5768 101.496 94.9444C78.2795 98.1156 63.2651 98.0888 39.4485 94.9262C36.7522 94.5682 34.7471 92.2575 34.7471 89.5375C34.7471 86.5197 37.1935 84.0733 40.2113 84.0733H41.1078C41.0925 83.5732 41.1126 83.0653 41.1705 82.5522L42.8921 67.2728C44.1237 56.3421 52.1389 47.3903 62.8643 44.9612C61.2443 43.1548 60.2589 40.7676 60.2589 38.1502Z" fill="#B9DDFF" fill-opacity="0.6"/>
<path d="M78.0635 44.9611L77.608 44.5525C77.4631 44.714 77.4146 44.9402 77.4805 45.1469C77.5464 45.3536 77.7168 45.5099 77.9283 45.5578L78.0635 44.9611ZM98.0364 67.2728L98.6444 67.2042L98.0364 67.2728ZM99.758 82.5522L100.366 82.4837V82.4837L99.758 82.5522ZM99.8206 84.0733L99.209 84.0546C99.204 84.2201 99.2662 84.3805 99.3814 84.4993C99.4967 84.6181 99.6551 84.6852 99.8206 84.6852V84.0733ZM101.496 94.9444L101.413 94.3381L101.496 94.9444ZM39.4485 94.9262L39.529 94.3196H39.529L39.4485 94.9262ZM41.1078 84.0733V84.6852C41.2733 84.6852 41.4318 84.6181 41.547 84.4993C41.6623 84.3805 41.7245 84.2201 41.7194 84.0546L41.1078 84.0733ZM41.1705 82.5522L41.7785 82.6207L41.1705 82.5522ZM42.8921 67.2728L43.5001 67.3413L42.8921 67.2728ZM62.8643 44.9612L62.9995 45.558C63.2111 45.5101 63.3815 45.3537 63.4473 45.147C63.5132 44.9403 63.4647 44.7142 63.3199 44.5527L62.8643 44.9612ZM70.4638 27.3334C64.4899 27.3334 59.647 32.1763 59.647 38.1502H60.8708C60.8708 32.8521 65.1658 28.5572 70.4638 28.5572V27.3334ZM81.2807 38.1502C81.2807 32.1763 76.4378 27.3334 70.4638 27.3334V28.5572C75.7619 28.5572 80.0569 32.8521 80.0569 38.1502H81.2807ZM78.519 45.3696C80.2357 43.4553 81.2807 40.9241 81.2807 38.1502H80.0569C80.0569 40.611 79.1311 42.8541 77.608 44.5525L78.519 45.3696ZM98.6444 67.2042C97.3836 56.0146 89.1784 46.8507 78.1986 44.3643L77.9283 45.5578C88.4002 47.9293 96.2258 56.6692 97.4283 67.3413L98.6444 67.2042ZM100.366 82.4837L98.6444 67.2042L97.4283 67.3413L99.1499 82.6207L100.366 82.4837ZM100.432 84.092C100.448 83.5629 100.427 83.0258 100.366 82.4837L99.1499 82.6207C99.2045 83.1049 99.2234 83.5836 99.209 84.0546L100.432 84.092ZM100.705 83.4614H99.8206V84.6852H100.705V83.4614ZM106.793 89.5498C106.793 86.1873 104.067 83.4614 100.705 83.4614V84.6852C103.392 84.6852 105.57 86.8631 105.57 89.5498H106.793ZM101.579 95.5507C104.577 95.1412 106.793 92.5682 106.793 89.5498H105.57C105.57 91.9636 103.798 94.0125 101.413 94.3381L101.579 95.5507ZM39.3679 95.5328C63.2368 98.7023 78.3061 98.7295 101.579 95.5507L101.413 94.3381C78.2528 97.5016 63.2934 97.4753 39.529 94.3196L39.3679 95.5328ZM34.1352 89.5375C34.1352 92.5612 36.3645 95.134 39.3679 95.5328L39.529 94.3196C37.1399 94.0024 35.359 91.9537 35.359 89.5375H34.1352ZM40.2113 83.4614C36.8555 83.4614 34.1352 86.1818 34.1352 89.5375H35.359C35.359 86.8576 37.5314 84.6852 40.2113 84.6852V83.4614ZM41.1078 83.4614H40.2113V84.6852H41.1078V83.4614ZM40.5624 82.4837C40.5013 83.0258 40.48 83.5629 40.4962 84.092L41.7194 84.0546C41.705 83.5836 41.724 83.1049 41.7785 82.6207L40.5624 82.4837ZM42.284 67.2043L40.5624 82.4837L41.7785 82.6207L43.5001 67.3413L42.284 67.2043ZM62.7292 44.3644C51.7497 46.8511 43.5448 56.0148 42.284 67.2043L43.5001 67.3413C44.7026 56.6694 52.528 47.9296 62.9995 45.558L62.7292 44.3644ZM59.647 38.1502C59.647 40.9242 60.692 43.4555 62.4088 45.3697L63.3199 44.5527C61.7966 42.8542 60.8708 40.611 60.8708 38.1502H59.647Z" fill="url(#paint1_linear_92_59)" mask="url(#path-4-inside-1_92_59)"/>
</g>
</g>
<defs>
<filter id="filter0_d_92_59" x="-69.7711" y="-53.6701" width="295.643" height="295.643" filterUnits="userSpaceOnUse" color-interpolation-filters="sRGB">
<feFlood flood-opacity="0" result="BackgroundImageFix"/>
<feColorMatrix in="SourceAlpha" type="matrix" values="0 0 0 0 0 0 0 0 0 0 0 0 0 0 0 0 0 0 127 0" result="hardAlpha"/>
<feMorphology radius="11.6285" operator="erode" in="SourceAlpha" result="effect1_dropShadow_92_59"/>
<feOffset dx="8.05051" dy="24.1515"/>
<feGaussianBlur stdDeviation="44.7251"/>
<feComposite in2="hardAlpha" operator="out"/>
<feColorMatrix type="matrix" values="0 0 0 0 0.0846354 0 0 0 0 0.203125 0 0 0 0 0.3125 0 0 0 0.1 0"/>
<feBlend mode="normal" in2="BackgroundImageFix" result="effect1_dropShadow_92_59"/>
<feBlend mode="normal" in="SourceGraphic" in2="effect1_dropShadow_92_59" result="shape"/>
</filter>
<filter id="filter1_b_92_59" x="21.3386" y="14.5369" width="98.2512" height="96.1821" filterUnits="userSpaceOnUse" color-interpolation-filters="sRGB">
<feFlood flood-opacity="0" result="BackgroundImageFix"/>
<feGaussianBlur in="BackgroundImageFix" stdDeviation="6.70422"/>
<feComposite in2="SourceAlpha" operator="in" result="effect1_backgroundBlur_92_59"/>
<feBlend mode="normal" in="SourceGraphic" in2="effect1_backgroundBlur_92_59" result="shape"/>
</filter>
<linearGradient id="paint0_linear_92_59" x1="59.4339" y1="85.2258" x2="97.6215" y2="118.756" gradientUnits="userSpaceOnUse">
<stop stop-color="#529EE3"/>
<stop offset="1" stop-color="#4088F4"/>
</linearGradient>
<linearGradient id="paint1_linear_92_59" x1="47.5032" y1="48.3554" x2="90.8748" y2="96.8288" gradientUnits="userSpaceOnUse">
<stop stop-color="white"/>
<stop offset="1" stop-color="white" stop-opacity="0"/>
</linearGradient>
</defs>
</svg>
