<svg width="140" height="140" viewBox="0 0 140 140" fill="none" xmlns="http://www.w3.org/2000/svg">
<mask id="mask0_92_55" style="mask-type:alpha" maskUnits="userSpaceOnUse" x="0" y="0" width="140" height="140">
<rect width="140" height="140" fill="#D9D9D9"/>
</mask>
<g mask="url(#mask0_92_55)">
<g filter="url(#filter0_d_92_55)">
<path d="M0.289673 0L140 0.289636L139.71 140L3.69427e-05 139.71L0.289673 0Z" fill="white"/>
</g>
<path d="M56.5143 41.879C61.4678 36.5991 63.9446 33.9592 66.8554 33.025C69.2019 32.2719 71.7253 32.2719 74.0718 33.025C76.9826 33.9592 79.4594 36.5991 84.4129 41.879L90.8244 48.7129C100.565 59.0947 105.435 64.2856 105.581 68.731C105.698 72.2629 104.226 75.6613 101.571 77.9928C98.2286 80.9274 91.1108 80.9274 76.8751 80.9274H64.0521C49.8164 80.9274 42.6986 80.9274 39.3563 77.9928C36.7008 75.6613 35.2293 72.2629 35.3458 68.731C35.4925 64.2856 40.3626 59.0947 50.1028 48.7129L56.5143 41.879Z" fill="url(#paint0_linear_92_55)"/>
<g filter="url(#filter1_b_92_55)">
<rect x="38.0929" y="60.8857" width="63.9308" height="49.4703" rx="19.5851" fill="#B9DDFF" fill-opacity="0.6"/>
<rect x="38.3988" y="61.1917" width="63.3189" height="48.8584" rx="19.2792" stroke="url(#paint1_linear_92_55)" stroke-width="0.611895"/>
</g>
<g filter="url(#filter2_b_92_55)">
<rect x="79.4497" y="88.0508" width="13.4792" height="17.9722" rx="6.73959" transform="rotate(90 79.4497 88.0508)" fill="url(#paint2_linear_92_55)"/>
<rect x="79.2049" y="88.2955" width="12.9897" height="17.4827" rx="6.49483" transform="rotate(90 79.2049 88.2955)" stroke="url(#paint3_linear_92_55)" stroke-width="0.489516"/>
</g>
</g>
<defs>
<filter id="filter0_d_92_55" x="-69.7711" y="-53.6701" width="295.643" height="295.643" filterUnits="userSpaceOnUse" color-interpolation-filters="sRGB">
<feFlood flood-opacity="0" result="BackgroundImageFix"/>
<feColorMatrix in="SourceAlpha" type="matrix" values="0 0 0 0 0 0 0 0 0 0 0 0 0 0 0 0 0 0 127 0" result="hardAlpha"/>
<feMorphology radius="11.6285" operator="erode" in="SourceAlpha" result="effect1_dropShadow_92_55"/>
<feOffset dx="8.05051" dy="24.1515"/>
<feGaussianBlur stdDeviation="44.7251"/>
<feComposite in2="hardAlpha" operator="out"/>
<feColorMatrix type="matrix" values="0 0 0 0 0.0846354 0 0 0 0 0.203125 0 0 0 0 0.3125 0 0 0 0.1 0"/>
<feBlend mode="normal" in2="BackgroundImageFix" result="effect1_dropShadow_92_55"/>
<feBlend mode="normal" in="SourceGraphic" in2="effect1_dropShadow_92_55" result="shape"/>
</filter>
<filter id="filter1_b_92_55" x="25.0361" y="47.829" width="90.0443" height="75.5842" filterUnits="userSpaceOnUse" color-interpolation-filters="sRGB">
<feFlood flood-opacity="0" result="BackgroundImageFix"/>
<feGaussianBlur in="BackgroundImageFix" stdDeviation="6.52838"/>
<feComposite in2="SourceAlpha" operator="in" result="effect1_backgroundBlur_92_55"/>
<feBlend mode="normal" in="SourceGraphic" in2="effect1_backgroundBlur_92_55" result="shape"/>
</filter>
<filter id="filter2_b_92_55" x="37.8633" y="64.4367" width="65.2004" height="60.7076" filterUnits="userSpaceOnUse" color-interpolation-filters="sRGB">
<feFlood flood-opacity="0" result="BackgroundImageFix"/>
<feGaussianBlur in="BackgroundImageFix" stdDeviation="11.807"/>
<feComposite in2="SourceAlpha" operator="in" result="effect1_backgroundBlur_92_55"/>
<feBlend mode="normal" in="SourceGraphic" in2="effect1_backgroundBlur_92_55" result="shape"/>
</filter>
<linearGradient id="paint0_linear_92_55" x1="45.7518" y1="42.7364" x2="122.134" y2="85.4205" gradientUnits="userSpaceOnUse">
<stop stop-color="#529EE3"/>
<stop offset="1" stop-color="#4088F4"/>
</linearGradient>
<linearGradient id="paint1_linear_92_55" x1="33.5264" y1="65.383" x2="112.7" y2="118.212" gradientUnits="userSpaceOnUse">
<stop stop-color="white"/>
<stop offset="1" stop-color="white" stop-opacity="0"/>
</linearGradient>
<linearGradient id="paint2_linear_92_55" x1="84.4035" y1="104.937" x2="91.5517" y2="85.28" gradientUnits="userSpaceOnUse">
<stop stop-color="white"/>
<stop offset="1" stop-color="white" stop-opacity="0"/>
</linearGradient>
<linearGradient id="paint3_linear_92_55" x1="80.8295" y1="109.405" x2="93.3387" y2="89.3009" gradientUnits="userSpaceOnUse">
<stop stop-color="white"/>
<stop offset="1" stop-color="white" stop-opacity="0"/>
</linearGradient>
</defs>
</svg>
