<svg width="18" height="18" viewBox="0 0 18 18" fill="none" xmlns="http://www.w3.org/2000/svg">
<mask id="mask0_145_52" style="mask-type:alpha" maskUnits="userSpaceOnUse" x="0" y="0" width="18" height="18">
<rect width="18" height="18" fill="#D9D9D9"/>
</mask>
<g mask="url(#mask0_145_52)">
</g>
<path d="M3.75 16.5C3.3375 16.5 2.98425 16.353 2.69025 16.059C2.39625 15.765 2.2495 15.412 2.25 15V4.5C2.25 4.0875 2.397 3.73425 2.691 3.44025C2.985 3.14625 3.338 2.9995 3.75 3H4.5V2.25C4.5 2.0375 4.572 1.85925 4.716 1.71525C4.86 1.57125 5.038 1.4995 5.25 1.5C5.4625 1.5 5.64075 1.572 5.78475 1.716C5.92875 1.86 6.0005 2.038 6 2.25V3H12V2.25C12 2.0375 12.072 1.85925 12.216 1.71525C12.36 1.57125 12.538 1.4995 12.75 1.5C12.9625 1.5 13.1408 1.572 13.2848 1.716C13.4288 1.86 13.5005 2.038 13.5 2.25V3H14.25C14.6625 3 15.0158 3.147 15.3098 3.441C15.6038 3.735 15.7505 4.088 15.75 4.5V15C15.75 15.4125 15.603 15.7658 15.309 16.0598C15.015 16.3538 14.662 16.5005 14.25 16.5H3.75ZM3.75 15H14.25V7.5H3.75V15Z" fill="#808488"/>
</svg>
