<svg width="45" height="45" viewBox="0 0 45 45" fill="none" xmlns="http://www.w3.org/2000/svg">
<mask id="mask0_136_46" style="mask-type:alpha" maskUnits="userSpaceOnUse" x="0" y="0" width="45" height="45">
<rect width="45" height="45" fill="#D9D9D9"/>
</mask>
<g mask="url(#mask0_136_46)">
<g filter="url(#filter0_d_136_46)">
<rect x="0.0931396" width="44.907" height="44.907" transform="rotate(0.118781 0.0931396 0)" fill="#E8F4FF"/>
</g>
<ellipse cx="22.6489" cy="29.241" rx="6.38549" ry="6.38549" fill="url(#paint0_linear_136_46)"/>
<g filter="url(#filter1_b_136_46)">
<mask id="path-4-inside-1_136_46" fill="white">
<path fill-rule="evenodd" clip-rule="evenodd" d="M19.3689 12.2626C19.3689 10.451 20.8375 8.98242 22.6491 8.98242C24.4607 8.98242 25.9292 10.451 25.9292 12.2626C25.9292 13.1038 25.6125 13.8712 25.0918 14.4518C28.5394 15.2325 31.1158 18.1099 31.5117 21.6234L32.0651 26.5346C32.0837 26.6996 32.0901 26.8628 32.0852 27.0236H32.3695C33.3416 27.0236 34.1297 27.8117 34.1297 28.7838C34.1297 29.6569 33.4888 30.3997 32.6238 30.5178C25.1613 31.5372 20.3352 31.5285 12.6799 30.512C11.8132 30.3969 11.1687 29.6542 11.1687 28.7799C11.1687 27.8099 11.955 27.0236 12.925 27.0236H13.2132C13.2083 26.8628 13.2148 26.6996 13.2334 26.5346L13.7867 21.6234C14.1826 18.11 16.7589 15.2326 20.2064 14.4518C19.6857 13.8712 19.3689 13.1039 19.3689 12.2626Z"/>
</mask>
<path fill-rule="evenodd" clip-rule="evenodd" d="M19.3689 12.2626C19.3689 10.451 20.8375 8.98242 22.6491 8.98242C24.4607 8.98242 25.9292 10.451 25.9292 12.2626C25.9292 13.1038 25.6125 13.8712 25.0918 14.4518C28.5394 15.2325 31.1158 18.1099 31.5117 21.6234L32.0651 26.5346C32.0837 26.6996 32.0901 26.8628 32.0852 27.0236H32.3695C33.3416 27.0236 34.1297 27.8117 34.1297 28.7838C34.1297 29.6569 33.4888 30.3997 32.6238 30.5178C25.1613 31.5372 20.3352 31.5285 12.6799 30.512C11.8132 30.3969 11.1687 29.6542 11.1687 28.7799C11.1687 27.8099 11.955 27.0236 12.925 27.0236H13.2132C13.2083 26.8628 13.2148 26.6996 13.2334 26.5346L13.7867 21.6234C14.1826 18.11 16.7589 15.2326 20.2064 14.4518C19.6857 13.8712 19.3689 13.1039 19.3689 12.2626Z" fill="#B9DDFF" fill-opacity="0.6"/>
<path d="M25.0918 14.4518L24.6363 14.0432C24.4915 14.2047 24.443 14.4309 24.5088 14.6376C24.5747 14.8443 24.7451 15.0006 24.9567 15.0486L25.0918 14.4518ZM31.5117 21.6234L32.1197 21.5549L32.1197 21.5549L31.5117 21.6234ZM32.0651 26.5346L31.457 26.6032L31.457 26.6032L32.0651 26.5346ZM32.0852 27.0236L31.4736 27.0049C31.4685 27.1703 31.5307 27.3308 31.646 27.4496C31.7612 27.5684 31.9197 27.6355 32.0852 27.6355V27.0236ZM32.6238 30.5178L32.541 29.9116L32.541 29.9116L32.6238 30.5178ZM12.6799 30.512L12.5993 31.1186L12.5993 31.1186L12.6799 30.512ZM13.2132 27.0236V27.6355C13.3787 27.6355 13.5372 27.5684 13.6525 27.4496C13.7677 27.3308 13.8299 27.1703 13.8248 27.0049L13.2132 27.0236ZM13.2334 26.5346L13.8414 26.6032L13.8414 26.6032L13.2334 26.5346ZM13.7867 21.6234L13.1787 21.5549L13.1787 21.5549L13.7867 21.6234ZM20.2064 14.4518L20.3416 15.0486C20.5531 15.0007 20.7235 14.8443 20.7894 14.6376C20.8553 14.4309 20.8068 14.2048 20.6619 14.0433L20.2064 14.4518ZM22.6491 8.37053C20.4996 8.37053 18.757 10.1131 18.757 12.2626H19.9808C19.9808 10.7889 21.1755 9.59432 22.6491 9.59432V8.37053ZM26.5411 12.2626C26.5411 10.1131 24.7986 8.37053 22.6491 8.37053V9.59432C24.1227 9.59432 25.3173 10.7889 25.3173 12.2626H26.5411ZM25.5474 14.8603C26.1648 14.1718 26.5411 13.2604 26.5411 12.2626H25.3173C25.3173 12.9473 25.0602 13.5705 24.6363 14.0432L25.5474 14.8603ZM32.1197 21.5549C31.6947 17.7826 28.9285 14.6932 25.227 13.855L24.9567 15.0486C28.1503 15.7718 30.5369 18.4372 30.9036 21.6919L32.1197 21.5549ZM32.6731 26.4661L32.1197 21.5549L30.9036 21.6919L31.457 26.6032L32.6731 26.4661ZM32.6968 27.0422C32.7026 26.8524 32.695 26.6601 32.6731 26.4661L31.457 26.6032C31.4723 26.7391 31.4776 26.8732 31.4736 27.0049L32.6968 27.0422ZM32.3695 26.4117H32.0852V27.6355H32.3695V26.4117ZM34.7416 28.7838C34.7416 27.4737 33.6796 26.4117 32.3695 26.4117V27.6355C33.0037 27.6355 33.5179 28.1496 33.5179 28.7838H34.7416ZM32.7066 31.1241C33.8783 30.9641 34.7416 29.9592 34.7416 28.7838H33.5179C33.5179 29.3546 33.0993 29.8353 32.541 29.9116L32.7066 31.1241ZM12.5993 31.1186C20.3069 32.142 25.1879 32.1511 32.7066 31.1241L32.541 29.9116C25.1346 30.9232 20.3636 30.915 12.7604 29.9054L12.5993 31.1186ZM10.5568 28.7799C10.5568 29.9579 11.4255 30.9627 12.5993 31.1186L12.7604 29.9054C12.2009 29.8311 11.7806 29.3504 11.7806 28.7799H10.5568ZM12.925 26.4117C11.6171 26.4117 10.5568 27.472 10.5568 28.7799H11.7806C11.7806 28.1478 12.293 27.6355 12.925 27.6355V26.4117ZM13.2132 26.4117H12.925V27.6355H13.2132V26.4117ZM12.6253 26.4661C12.6035 26.6601 12.5958 26.8524 12.6016 27.0422L13.8248 27.0049C13.8208 26.8732 13.8261 26.7391 13.8414 26.6032L12.6253 26.4661ZM13.1787 21.5549L12.6253 26.4661L13.8414 26.6032L14.3948 21.6919L13.1787 21.5549ZM20.0712 13.855C16.3698 14.6933 13.6037 17.7827 13.1787 21.5549L14.3948 21.6919C14.7615 18.4373 17.148 15.7719 20.3416 15.0486L20.0712 13.855ZM18.757 12.2626C18.757 13.2604 19.1334 14.1718 19.7509 14.8604L20.6619 14.0433C20.238 13.5706 19.9808 12.9473 19.9808 12.2626H18.757Z" fill="url(#paint1_linear_136_46)" mask="url(#path-4-inside-1_136_46)"/>
</g>
</g>
<defs>
<filter id="filter0_d_136_46" x="-69.7711" y="-53.6701" width="200.643" height="200.643" filterUnits="userSpaceOnUse" color-interpolation-filters="sRGB">
<feFlood flood-opacity="0" result="BackgroundImageFix"/>
<feColorMatrix in="SourceAlpha" type="matrix" values="0 0 0 0 0 0 0 0 0 0 0 0 0 0 0 0 0 0 127 0" result="hardAlpha"/>
<feMorphology radius="11.6285" operator="erode" in="SourceAlpha" result="effect1_dropShadow_136_46"/>
<feOffset dx="8.05051" dy="24.1515"/>
<feGaussianBlur stdDeviation="44.7251"/>
<feComposite in2="hardAlpha" operator="out"/>
<feColorMatrix type="matrix" values="0 0 0 0 0.0846354 0 0 0 0 0.203125 0 0 0 0 0.3125 0 0 0 0.1 0"/>
<feBlend mode="normal" in2="BackgroundImageFix" result="effect1_dropShadow_136_46"/>
<feBlend mode="normal" in="SourceGraphic" in2="effect1_dropShadow_136_46" result="shape"/>
</filter>
<filter id="filter1_b_136_46" x="-2.23973" y="-4.42601" width="49.7779" height="49.1128" filterUnits="userSpaceOnUse" color-interpolation-filters="sRGB">
<feFlood flood-opacity="0" result="BackgroundImageFix"/>
<feGaussianBlur in="BackgroundImageFix" stdDeviation="6.70422"/>
<feComposite in2="SourceAlpha" operator="in" result="effect1_backgroundBlur_136_46"/>
<feBlend mode="normal" in="SourceGraphic" in2="effect1_backgroundBlur_136_46" result="shape"/>
</filter>
<linearGradient id="paint0_linear_136_46" x1="19.1037" y1="27.3935" x2="31.3783" y2="38.1712" gradientUnits="userSpaceOnUse">
<stop stop-color="#529EE3"/>
<stop offset="1" stop-color="#4088F4"/>
</linearGradient>
<linearGradient id="paint1_linear_136_46" x1="15.2689" y1="15.5428" x2="29.2097" y2="31.1235" gradientUnits="userSpaceOnUse">
<stop stop-color="white"/>
<stop offset="1" stop-color="white" stop-opacity="0"/>
</linearGradient>
</defs>
</svg>
