<svg width="20" height="20" viewBox="0 0 20 20" fill="none" xmlns="http://www.w3.org/2000/svg">
<path d="M10.0001 7.50033C9.33704 7.50033 8.70116 7.76372 8.23231 8.23256C7.76347 8.7014 7.50008 9.33728 7.50008 10.0003C7.50008 10.6634 7.76347 11.2993 8.23231 11.7681C8.70116 12.2369 9.33704 12.5003 10.0001 12.5003C10.6631 12.5003 11.299 12.2369 11.7678 11.7681C12.2367 11.2993 12.5001 10.6634 12.5001 10.0003C12.5001 9.33728 12.2367 8.7014 11.7678 8.23256C11.299 7.76372 10.6631 7.50033 10.0001 7.50033ZM10.0001 5.83366C11.1052 5.83366 12.165 6.27265 12.9464 7.05405C13.7278 7.83545 14.1667 8.89526 14.1667 10.0003C14.1667 11.1054 13.7278 12.1652 12.9464 12.9466C12.165 13.728 11.1052 14.167 10.0001 14.167C8.89501 14.167 7.83521 13.728 7.0538 12.9466C6.2724 12.1652 5.83342 11.1054 5.83342 10.0003C5.83342 8.89526 6.2724 7.83545 7.0538 7.05405C7.83521 6.27265 8.89501 5.83366 10.0001 5.83366ZM15.4167 5.62533C15.4167 5.90159 15.307 6.16654 15.1117 6.3619C14.9163 6.55725 14.6513 6.66699 14.3751 6.66699C14.0988 6.66699 13.8339 6.55725 13.6385 6.3619C13.4432 6.16654 13.3334 5.90159 13.3334 5.62533C13.3334 5.34906 13.4432 5.08411 13.6385 4.88876C13.8339 4.69341 14.0988 4.58366 14.3751 4.58366C14.6513 4.58366 14.9163 4.69341 15.1117 4.88876C15.307 5.08411 15.4167 5.34906 15.4167 5.62533ZM10.0001 3.33366C7.93842 3.33366 7.60175 3.33949 6.64258 3.38199C5.98925 3.41283 5.55091 3.50033 5.14425 3.65866C4.80393 3.78361 4.49626 3.98388 4.24425 4.24449C3.98342 4.49649 3.78288 4.80415 3.65758 5.14449C3.49925 5.55283 3.41175 5.99033 3.38175 6.64283C3.33841 7.56283 3.33341 7.88449 3.33341 10.0003C3.33341 12.062 3.33925 12.3987 3.38175 13.3578C3.41258 14.0103 3.50008 14.4495 3.65758 14.8553C3.79925 15.2178 3.96591 15.4787 4.24258 15.7553C4.52341 16.0353 4.78425 16.2028 5.14258 16.3412C5.55425 16.5003 5.99258 16.5887 6.64258 16.6187C7.56258 16.662 7.88425 16.667 10.0001 16.667C12.0617 16.667 12.3984 16.6612 13.3576 16.6187C14.0092 16.5878 14.4484 16.5003 14.8551 16.3428C15.1949 16.2173 15.5024 16.0174 15.7551 15.7578C16.0359 15.477 16.2034 15.2162 16.3417 14.8578C16.5001 14.447 16.5884 14.0078 16.6184 13.3578C16.6617 12.4378 16.6667 12.1162 16.6667 10.0003C16.6667 7.93866 16.6609 7.60199 16.6184 6.64283C16.5876 5.99116 16.5001 5.55116 16.3417 5.14449C16.2162 4.80449 16.016 4.49696 15.7559 4.24449C15.504 3.98353 15.1963 3.78296 14.8559 3.65783C14.4476 3.49949 14.0092 3.41199 13.3576 3.38199C12.4376 3.33866 12.1159 3.33366 10.0001 3.33366ZM10.0001 1.66699C12.2642 1.66699 12.5467 1.67533 13.4351 1.71699C14.3226 1.75866 14.9267 1.89783 15.4584 2.10449C16.0084 2.31616 16.4717 2.60283 16.9351 3.06533C17.3588 3.48191 17.6867 3.98582 17.8959 4.54199C18.1017 5.07283 18.2417 5.67783 18.2834 6.56533C18.3226 7.45366 18.3334 7.73616 18.3334 10.0003C18.3334 12.2645 18.3251 12.547 18.2834 13.4353C18.2417 14.3228 18.1017 14.927 17.8959 15.4587C17.6873 16.0151 17.3594 16.5192 16.9351 16.9353C16.5184 17.3589 16.0145 17.6868 15.4584 17.8962C14.9276 18.102 14.3226 18.242 13.4351 18.2837C12.5467 18.3228 12.2642 18.3337 10.0001 18.3337C7.73592 18.3337 7.45341 18.3253 6.56508 18.2837C5.67758 18.242 5.07341 18.102 4.54175 17.8962C3.98535 17.6874 3.48135 17.3594 3.06508 16.9353C2.64125 16.5188 2.31336 16.0149 2.10425 15.4587C1.89758 14.9278 1.75841 14.3228 1.71675 13.4353C1.67758 12.547 1.66675 12.2645 1.66675 10.0003C1.66675 7.73616 1.67508 7.45366 1.71675 6.56533C1.75841 5.67699 1.89758 5.07366 2.10425 4.54199C2.31278 3.98548 2.64075 3.48143 3.06508 3.06533C3.48147 2.64135 3.98544 2.31343 4.54175 2.10449C5.07341 1.89783 5.67675 1.75866 6.56508 1.71699C7.45341 1.67783 7.73592 1.66699 10.0001 1.66699Z" fill="#F8FAFD"/>
</svg>
