<svg width="25" height="25" viewBox="0 0 25 25" fill="none" xmlns="http://www.w3.org/2000/svg">
<path d="M23.0959 1.90759C22.9362 1.74787 22.7336 1.63773 22.5127 1.59043C22.2918 1.54313 22.062 1.56069 21.8508 1.64099L2.31809 9.03406H2.31418C2.08897 9.12068 1.89599 9.27471 1.76159 9.47512C1.62719 9.67552 1.55793 9.91253 1.56328 10.1538C1.56862 10.395 1.6483 10.6287 1.79143 10.823C1.93457 11.0172 2.13418 11.1626 2.36301 11.2391L2.38303 11.2455L9.08713 14.1083C9.2179 14.148 9.35678 14.1527 9.48993 14.1219C9.62307 14.0912 9.74582 14.026 9.84592 13.933L20.6057 3.90711C20.6377 3.87504 20.6758 3.84961 20.7177 3.83226C20.7596 3.81491 20.8045 3.80598 20.8498 3.80598C20.8952 3.80598 20.9401 3.81491 20.982 3.83226C21.0238 3.84961 21.0619 3.87504 21.094 3.90711C21.126 3.93917 21.1515 3.97723 21.1688 4.01912C21.1862 4.06101 21.1951 4.10591 21.1951 4.15125C21.1951 4.19659 21.1862 4.24148 21.1688 4.28337C21.1515 4.32526 21.126 4.36333 21.094 4.39539L11.0676 15.1503C10.9746 15.2504 10.9094 15.3731 10.8787 15.5063C10.8479 15.6394 10.8526 15.7783 10.8923 15.9091L13.7561 22.6171C13.759 22.6268 13.7619 22.6356 13.7654 22.6449C13.9216 23.0975 14.3171 23.4169 14.7951 23.4384H14.844C15.0853 23.4397 15.3215 23.3685 15.5217 23.2338C15.722 23.0992 15.8772 22.9075 15.967 22.6835L23.3591 3.15613C23.4406 2.94484 23.459 2.71448 23.4123 2.4929C23.3656 2.27133 23.2557 2.06803 23.0959 1.90759Z" fill="#1485EE"/>
</svg>
